<?xml version="1.0" standalone="no"?>
<!DOCTYPE svg PUBLIC "-//W3C//DTD SVG 20010904//EN"
 "http://www.w3.org/TR/2001/REC-SVG-20010904/DTD/svg10.dtd">
<svg version="1.0" xmlns="http://www.w3.org/2000/svg"
 width="635.000000pt" height="393.000000pt" viewBox="0 0 635.000000 393.000000"
 preserveAspectRatio="xMidYMid meet">

<g transform="translate(0.000000,393.000000) scale(0.100000,-0.100000)"
fill="#000000" stroke="none">
<path d="M3710 3791 c-76 -16 -145 -74 -157 -132 -7 -37 -18 -45 -88 -69 -101
-35 -212 -136 -266 -242 -11 -21 -25 -38 -32 -38 -6 0 -33 25 -59 54 -75 85
-176 139 -301 160 -30 6 -41 14 -57 46 -41 80 -116 109 -241 93 -87 -12 -124
-30 -142 -71 -6 -15 -26 -44 -45 -65 -38 -44 -52 -76 -52 -119 0 -22 -14 -47
-51 -91 -60 -72 -84 -117 -104 -194 -58 -224 58 -489 259 -589 124 -61 223
-58 471 16 193 57 285 114 349 218 14 23 31 42 36 42 5 0 28 -20 51 -45 67
-72 159 -112 330 -142 230 -40 353 -32 479 32 115 58 195 207 215 400 8 75
-16 199 -53 274 -34 68 -103 146 -152 171 -38 19 -50 41 -50 92 0 21 -21 49
-90 118 l-91 90 -62 -1 c-34 -1 -78 -4 -97 -8z m155 -104 c10 -16 13 -34 9
-57 l-7 -33 36 7 c29 5 40 3 57 -14 27 -27 25 -47 -10 -80 -30 -28 -30 -40 1
-40 29 0 112 -40 143 -68 16 -15 44 -51 64 -81 108 -167 74 -431 -73 -563 -73
-65 -226 -95 -345 -67 -25 6 -86 17 -137 24 -122 17 -216 61 -281 129 -27 29
-54 67 -60 86 -36 109 -30 284 13 377 30 67 131 167 195 196 27 13 75 22 123
25 42 3 77 7 77 9 0 3 -9 16 -20 30 -27 34 -25 69 5 98 30 31 42 31 73 3 19
-18 26 -20 30 -9 18 50 81 67 107 28z m-1328 -139 l32 -31 12 27 c10 22 18 26
43 24 43 -4 64 -44 50 -95 l-10 -39 105 0 c124 0 141 -6 246 -93 6 -4 25 -26
44 -48 60 -72 74 -119 97 -354 7 -63 -12 -111 -68 -175 -33 -38 -194 -124
-230 -124 -11 0 -72 -14 -136 -31 -155 -42 -208 -42 -300 1 -105 48 -158 111
-219 260 -12 30 -18 70 -18 125 0 139 62 256 170 319 25 15 45 30 45 34 0 4
-9 15 -20 25 -22 19 -27 66 -8 85 7 7 27 12 45 12 33 0 33 0 27 40 -12 73 36
93 93 38z"/>
<path d="M3496 3399 c-32 -25 -26 -42 11 -28 14 5 34 7 43 4 26 -8 37 15 15
32 -25 18 -38 17 -69 -8z"/>
<path d="M3935 3350 c-9 -15 3 -30 24 -30 10 0 24 -7 31 -15 13 -16 40 -20 40
-6 0 4 -9 20 -21 35 -21 26 -62 35 -74 16z"/>
<path d="M3460 3205 c-19 -20 -22 -32 -17 -65 l5 -41 -31 6 c-24 4 -39 0 -61
-18 l-29 -23 44 2 c24 1 38 -1 31 -3 -6 -3 -10 -9 -6 -14 3 -5 1 -9 -5 -9 -5
0 -13 5 -16 10 -11 17 -28 11 -20 -7 5 -15 4 -16 -6 -5 -7 6 -17 12 -21 12
-11 0 16 -65 28 -66 5 0 22 -6 38 -13 24 -9 33 -9 59 6 42 25 55 48 40 72 -14
22 -8 31 21 31 69 1 100 111 40 139 -39 17 -68 13 -94 -14z m90 -13 c0 -10 -3
-22 -7 -25 -10 -11 -32 13 -26 29 8 20 33 17 33 -4z m-150 -182 c0 -5 -5 -10
-11 -10 -5 0 -7 5 -4 10 3 6 8 10 11 10 2 0 4 -4 4 -10z"/>
<path d="M3879 3152 c-34 -29 -30 -78 9 -114 18 -15 42 -28 54 -28 l22 0 -22
-16 c-48 -33 -4 -122 55 -111 12 2 24 0 25 -5 6 -16 55 13 67 39 9 20 9 30 -4
49 -16 24 -87 50 -106 38 -6 -3 -1 11 12 33 16 28 20 47 15 66 -15 62 -80 87
-127 49z m84 -19 c11 -10 -13 -32 -29 -26 -20 8 -17 33 4 33 10 0 22 -3 25 -7z"/>
<path d="M3580 3040 c-8 -16 -7 -30 9 -65 32 -72 112 -95 190 -55 44 22 70 72
50 96 -18 22 -27 17 -54 -26 -22 -35 -30 -40 -64 -40 -48 0 -80 25 -90 69 -8
41 -25 50 -41 21z"/>
<path d="M2788 3329 c-10 -5 -18 -16 -18 -23 0 -11 54 -14 110 -6 3 0 -6 10
-19 20 -26 22 -47 25 -73 9z"/>
<path d="M2390 3213 c-21 -8 -40 -34 -40 -56 0 -18 1 -17 26 2 15 12 33 21 40
21 20 0 28 21 13 31 -15 10 -17 10 -39 2z"/>
<path d="M2816 3144 c-25 -24 -29 -58 -12 -98 21 -51 43 -48 42 6 -1 54 24 63
50 19 10 -17 25 -31 32 -31 8 0 12 -6 8 -15 -3 -8 -1 -15 3 -15 5 0 12 -7 15
-16 5 -14 4 -15 -7 -5 -11 9 -17 8 -26 -3 -16 -19 -5 -40 29 -53 37 -14 107 4
122 32 9 15 8 17 -6 12 -9 -4 -16 -2 -16 3 0 6 7 10 15 10 30 0 16 37 -20 54
-31 15 -39 15 -63 3 -28 -13 -28 -13 -28 21 0 66 -96 119 -138 76z m124 -179
c0 -8 -2 -15 -4 -15 -2 0 -6 7 -10 15 -3 8 -1 15 4 15 6 0 10 -7 10 -15z m104
-1 c3 -8 2 -12 -4 -9 -6 3 -10 10 -10 16 0 14 7 11 14 -7z"/>
<path d="M2421 3014 c-24 -31 -26 -68 -6 -104 19 -33 18 -40 -1 -40 -29 0 -74
-40 -74 -66 0 -55 68 -81 130 -49 50 26 53 99 5 111 -22 5 -25 12 -25 48 0 22
4 47 9 55 12 19 39 7 51 -25 6 -14 16 -24 23 -22 22 8 19 56 -4 88 -30 40 -78
42 -108 4z"/>
<path d="M2715 2944 c-22 -8 -59 -19 -82 -24 -43 -11 -59 -32 -47 -64 12 -32
49 -37 116 -16 35 11 70 20 79 20 26 0 51 35 47 67 -3 24 -7 28 -38 30 -19 0
-53 -5 -75 -13z"/>
<path d="M3400 2351 c-127 -39 -229 -194 -230 -348 0 -24 -3 -43 -7 -43 -3 0
-35 11 -70 25 -95 38 -177 43 -259 15 -58 -19 -72 -21 -107 -10 -22 6 -76 11
-121 10 -44 -1 -103 4 -131 11 -67 16 -149 -7 -206 -58 l-40 -36 -48 27 c-37
20 -63 26 -109 26 -74 0 -103 -11 -160 -57 l-43 -35 -67 32 c-56 27 -74 31
-121 28 -31 -2 -73 -12 -94 -22 -21 -10 -41 -16 -44 -12 -3 3 -18 34 -33 69
-73 173 -169 247 -321 247 -122 0 -220 -55 -264 -146 -9 -19 -21 -34 -26 -34
-6 0 -29 16 -52 35 -53 46 -102 58 -207 53 -71 -3 -93 -9 -133 -32 -107 -63
-157 -167 -157 -325 1 -175 60 -346 156 -451 51 -55 165 -123 226 -135 21 -4
34 -18 52 -54 34 -66 70 -107 124 -138 41 -24 55 -27 146 -27 81 0 110 4 146
21 106 48 151 114 158 233 4 73 5 76 50 123 51 52 77 59 86 23 10 -40 75 -149
113 -187 121 -126 343 -155 514 -69 19 10 58 39 86 64 l51 46 29 -34 c51 -62
92 -79 181 -75 66 3 85 8 122 33 l44 29 47 -27 c67 -37 155 -37 232 2 55 28
56 28 89 11 66 -35 122 -43 179 -24 100 33 153 112 168 246 4 38 10 71 13 74
2 3 30 -12 61 -32 48 -32 57 -42 57 -68 1 -76 78 -178 163 -216 43 -19 69 -23
152 -23 107 0 146 11 209 59 41 31 76 101 76 150 0 36 28 75 53 75 8 0 36 16
62 35 27 19 53 31 56 27 4 -4 15 -36 24 -71 22 -86 48 -134 103 -193 57 -62
115 -96 201 -120 126 -35 247 -20 366 46 36 20 67 36 70 36 2 0 6 -14 10 -31
17 -78 129 -145 228 -137 29 2 66 11 83 20 30 14 32 14 67 -18 64 -59 181 -78
264 -44 29 13 33 12 66 -17 88 -77 277 -65 346 23 75 96 115 245 108 404 -11
273 -159 423 -416 421 -55 0 -93 3 -97 10 -13 21 -90 49 -137 49 -33 0 -63 9
-100 29 -28 16 -68 32 -88 35 -50 9 -137 -10 -179 -39 -44 -31 -60 -31 -91 -4
-89 79 -243 83 -325 8 -20 -18 -21 -18 -66 24 -57 55 -114 72 -208 64 -77 -6
-73 -10 -85 78 -22 161 -123 275 -268 305 -110 22 -217 -9 -283 -82 -19 -21
-34 -43 -34 -48 0 -25 -31 -6 -49 29 -25 48 -83 95 -136 110 -45 12 -187 13
-225 2z m193 -105 c48 -22 77 -51 88 -88 5 -18 9 -97 9 -176 l0 -144 34 -34
c52 -52 102 -45 138 19 7 13 15 81 18 157 7 165 21 203 90 238 53 28 119 25
192 -8 91 -40 128 -126 128 -297 0 -205 -38 -302 -153 -388 -36 -28 -74 -48
-99 -51 -51 -9 -69 -27 -61 -64 15 -78 -42 -170 -121 -191 -59 -16 -139 -4
-187 28 -54 36 -79 87 -79 162 l0 60 -38 11 c-22 5 -58 23 -80 40 -23 16 -44
30 -47 30 -3 0 -21 17 -40 38 -71 74 -105 182 -105 332 0 191 45 283 160 329
37 15 116 13 153 -3z m-2309 -159 c77 -42 116 -112 152 -272 41 -185 -16 -350
-152 -437 -23 -14 -44 -30 -47 -35 -3 -5 1 -33 10 -63 19 -66 8 -112 -39 -157
-35 -33 -111 -63 -156 -62 -90 2 -158 69 -177 173 -8 38 -9 38 -85 50 -58 10
-152 61 -197 107 -43 45 -90 138 -118 231 -20 70 -20 239 0 282 37 78 136 133
221 123 86 -9 122 -64 160 -244 16 -80 40 -144 58 -155 24 -16 96 -8 116 12
24 24 27 99 6 180 -44 176 -22 251 85 286 54 17 110 10 163 -19z m1222 -201
c10 -15 15 -15 50 0 25 11 56 15 90 12 46 -4 65 -12 120 -53 9 -7 22 -1 43 19
16 15 48 32 72 37 46 11 142 3 174 -14 79 -41 147 -140 176 -257 17 -70 18
-263 0 -313 -32 -92 -168 -120 -199 -40 -15 38 -32 137 -32 187 0 60 -20 91
-55 89 -15 -1 -32 -8 -37 -15 -4 -7 -8 -68 -8 -135 0 -113 -2 -124 -23 -149
-18 -20 -35 -28 -73 -31 -44 -5 -53 -2 -81 24 -37 34 -63 113 -63 188 0 79
-16 115 -50 115 -39 0 -44 -19 -44 -168 -1 -123 -1 -124 -29 -148 -54 -47
-149 -25 -181 42 -41 87 -58 194 -59 365 -1 165 -1 167 26 208 17 26 39 44 59
50 44 13 109 6 124 -13z m-359 -43 c35 -23 53 -65 69 -162 24 -149 13 -286
-29 -366 -31 -61 -109 -117 -186 -135 -64 -15 -172 -8 -227 15 -56 23 -119 89
-159 166 -45 86 -55 138 -57 268 -1 121 12 160 62 186 35 18 120 20 142 3 23
-19 38 -73 38 -136 0 -88 20 -181 45 -210 17 -20 31 -26 59 -25 76 2 95 51 71
183 -31 173 -31 166 4 199 17 16 42 32 54 34 33 7 87 -2 114 -20z m2455 -9
c37 -19 43 -51 30 -154 -16 -116 -15 -165 3 -199 16 -31 33 -41 74 -41 69 0
91 51 91 213 0 107 1 109 29 138 23 23 38 29 71 29 56 0 103 -22 131 -61 22
-31 24 -43 24 -154 -1 -196 -52 -319 -165 -390 -74 -47 -218 -56 -318 -22 -67
23 -130 83 -170 161 -35 68 -36 76 -40 194 -4 135 5 192 43 252 37 58 122 73
197 34z m768 -49 c16 -8 34 -24 40 -35 9 -17 17 -19 55 -13 64 8 129 -13 172
-57 l37 -37 45 20 c77 34 195 7 274 -61 30 -26 74 -133 85 -202 18 -123 -29
-318 -92 -379 -42 -41 -106 -52 -154 -27 -56 29 -64 72 -37 213 20 103 19 112
-10 125 -45 20 -68 -7 -93 -109 -12 -49 -22 -97 -22 -107 0 -10 -13 -31 -29
-47 -34 -33 -79 -38 -136 -14 -51 21 -58 48 -49 201 6 129 6 132 -15 144 -34
17 -59 3 -70 -38 -5 -20 -18 -73 -29 -117 -36 -142 -47 -155 -129 -142 -79 13
-103 64 -103 220 0 123 17 243 50 349 19 64 51 102 100 121 29 11 81 7 110 -8z"/>
<path d="M2785 829 c-236 -10 -394 -23 -525 -44 -52 -8 -160 -22 -240 -30 -80
-8 -219 -29 -310 -45 -91 -17 -203 -37 -250 -46 -97 -17 -562 -130 -602 -145
-32 -13 -42 -34 -28 -59 24 -44 50 -41 340 35 69 18 157 39 195 45 39 7 104
20 145 31 41 10 167 32 280 48 113 17 228 35 255 41 28 5 136 16 240 25 105 8
260 22 345 31 120 13 264 17 640 18 445 1 514 -2 830 -27 422 -34 841 -95
1190 -174 135 -30 282 -64 328 -74 46 -10 99 -23 117 -28 43 -12 79 6 83 40 2
14 -3 31 -10 36 -23 19 -580 153 -715 173 -37 5 -117 18 -178 30 -163 30 -154
29 -353 51 -102 11 -226 27 -276 35 -211 33 -1037 52 -1501 33z"/>
</g>
</svg>
