<svg width="635" height="393" version="1.1" xmlns="http://www.w3.org/2000/svg" desc="Created with imagetracer.js version 1.2.6" ><path fill="rgb(25,23,24)" stroke="rgb(25,23,24)" stroke-width="1" opacity="0.14901960784313725" d="M 371.5 12 L 387.5 12 L 393 16.5 L 401.5 26 L 405 28.5 L 406 31.5 L 404 30.5 L 399.5 25 L 396 24 L 389.5 15 Q 385.2 11.3 375.5 13 Q 374 15.5 368.5 14 L 364.5 16 L 357 22.5 L 354 32 L 340.5 36 L 326 48.5 L 316.5 63 L 304.5 50 L 292.5 43 L 285.5 41 L 280.5 41 L 276 38.5 Q 274.5 32 269.5 29 L 260.5 26 L 255.5 26 L 254.5 27 L 242.5 28 L 237 32.5 L 233.5 40 L 230 42.5 Q 225.8 46.3 227 55.5 L 214 72.5 L 210 85.5 L 210 100.5 Q 214.6 123.9 230.5 136 L 245.5 143 L 259.5 144 L 260.5 143 L 271.5 142 L 281.5 138 L 295.5 135 L 310.5 127 L 317 120.5 L 322.5 112 Q 325.8 110.9 325 113.5 Q 332.8 123.8 346.5 128 L 374.5 133 L 393.5 133 Q 411.1 130.1 420 118.5 Q 430.9 104.4 431 79.5 L 428 65.5 L 424 57.5 L 412.5 44 L 406 40.5 L 406.5 38 L 408.5 41 Q 417.8 43.7 422 51.5 L 430 66.5 L 432 77.5 L 432 90.5 L 430 101.5 L 424 115.5 L 412.5 128 Q 400 136.5 377.5 135 L 362.5 132 L 355.5 132 L 341.5 128 L 332.5 123 L 325 115.5 L 323.5 113 Q 318.6 122.6 310.5 129 L 299.5 135 L 271.5 144 L 261.5 146 L 251.5 146 L 235.5 141 L 219 126.5 L 210 107.5 L 208 96.5 L 208 88.5 Q 210.5 87 209 81.5 L 214 69.5 L 225 55.5 L 226 47.5 L 228 43.5 L 233 38.5 Q 234.1 31.1 239.5 28 L 249.5 25 L 261.5 25 L 270.5 28 L 275 32.5 L 278.5 39 L 293.5 42 Q 304.2 46.3 311 54.5 L 316.5 61 Q 322 49 331.5 41 L 339.5 35 L 353 29.5 Q 354.2 19.7 361.5 16 L 371.5 12 Z " /><path fill="rgb(25,23,24)" stroke="rgb(25,23,24)" stroke-width="1" opacity="0.14901960784313725" d="M 345.5 155 L 356.5 155 L 365.5 157 L 375 164.5 L 379.5 172 Q 381.7 165.2 387.5 162 L 399.5 157 L 412.5 157 Q 426.9 160.1 434 170.5 L 441 185.5 L 442 196 L 455.5 195 Q 467.7 197.3 473.5 206 Q 479.5 198 494.5 199 L 501.5 201 L 512.5 208 Q 519.4 199.9 535.5 201 L 548.5 207 L 561.5 208 L 569.5 214 L 574.5 214 L 575.5 213 L 583.5 213 L 603.5 220 L 610 226.5 Q 616.2 233.3 619 243.5 L 621 264.5 L 617 284.5 L 607 301 L 597.5 306 L 586.5 307 L 578.5 305 L 568.5 298 Q 563.8 303.3 551.5 301 Q 542.1 299.4 537.5 293 L 534.5 293 Q 530.1 297 520.5 296 Q 508.9 293.6 503 285.5 L 500.5 279 Q 492 285 480.5 288 L 461.5 288 L 446.5 283 L 435 273.5 L 428 261.5 L 427 256.5 L 428 256.5 Q 432.1 271.4 443.5 279 Q 451.7 284.8 463.5 287 L 478.5 287 L 488.5 284 L 502 277 L 502 281.5 L 508.5 289 L 519.5 294 L 528.5 294 L 536.5 290 L 540.5 295 Q 548 300.5 561.5 300 L 567.5 297 L 570.5 297 Q 577.4 306.1 594.5 305 L 604.5 301 L 608 297.5 L 615 285.5 L 618 275.5 L 619 270.5 L 619 249.5 Q 615.9 232.1 604.5 223 L 594.5 217 L 578.5 214 L 577.5 215 L 568.5 215 L 561.5 210 Q 556.8 207.8 548.5 209 L 538.5 203 L 530.5 202 Q 528.8 204.8 522.5 203 L 515.5 208 L 510.5 209 L 508 208 Q 509.1 205.3 506.5 206 L 502.5 203 L 490.5 200 L 481.5 202 L 474.5 207 L 471 207 L 470 203 L 457.5 197 L 445.5 197 L 441 198 L 436 176.5 L 426.5 165 Q 417.8 156.2 397.5 159 L 384 166 L 381 173 L 377 171.5 Q 376.4 165.2 371.5 163 Q 363.2 154.3 343.5 157 Q 330.8 159.3 325 168.5 Q 316.3 178.7 317 197 L 302.5 192 L 289.5 191 L 278.5 195 L 274.5 195 L 270.5 193 L 257.5 193 L 253.5 194 Q 249.4 190.1 240.5 191 L 229.5 195 L 223.5 201 L 221.5 201 Q 216 193.5 200.5 196 L 195.5 198 L 187.5 205 L 185.5 205 L 173.5 199 L 165.5 199 L 154.5 203 L 148 188.5 L 137.5 176 Q 129.4 169.1 112.5 171 Q 99.8 173.3 94 182.5 L 90.5 189 L 88.5 189 Q 83.8 182.7 75.5 180 L 58.5 180 Q 47.4 183.4 41 191.5 Q 32.3 202.8 35 225.5 L 38 239.5 L 44 252.5 L 55.5 266 L 69.5 274 Q 75.3 273.2 77 276.5 Q 80.1 286.4 87.5 292 L 94.5 296 L 111.5 297 Q 124.7 294.2 132 285.5 L 136 274.5 L 136 263.5 L 140.5 259 L 144 256.5 L 145.5 254 Q 150.8 252.3 149 257.5 L 157 271.5 L 164.5 279 L 182.5 287 L 198.5 287 L 214.5 281 L 224.5 272 L 226.5 272 L 232.5 279 L 238.5 282 L 247.5 283 L 256.5 281 L 263.5 276 L 271.5 281 L 282.5 282 L 298.5 276 Q 303.3 281.3 313 281.5 L 307.5 282 L 296.5 277 Q 289.5 284 274.5 283 L 265.5 278 L 262.5 278 L 254.5 283 L 242.5 284 Q 241.3 281.8 236.5 283 L 230 278.5 L 227 273 L 209.5 285 L 199.5 288 L 187.5 289 Q 186 286.5 180.5 288 L 167.5 283 L 156 272.5 L 150 262.5 L 148 255 L 146.5 255 L 137 264.5 L 138 270.5 L 135 283.5 L 126.5 293 L 113.5 298 L 99.5 298 Q 98.3 295.8 93.5 297 L 87.5 294 L 82 288.5 L 74.5 276 Q 59.3 272.7 50 263.5 L 43 254.5 L 36 237.5 L 33 222.5 L 33 209.5 L 38 193.5 L 46.5 184 L 55.5 179 L 71.5 178 L 79.5 180 L 89.5 188 L 98.5 175 Q 104.5 170.5 113.5 169 L 124.5 169 Q 138.1 171.9 145 181.5 L 155.5 202 Q 161.5 196 175.5 198 L 187.5 204 Q 193.1 192.6 211.5 194 Q 218.7 195.3 222.5 200 Q 229 188.5 248.5 190 Q 252.5 193.5 261.5 192 L 266.5 191 Q 271.1 193.9 279.5 193 Q 286.7 188.2 300.5 190 L 315 195 L 318 178.5 L 327.5 163 L 337.5 157 L 345.5 155 Z " /><path fill="rgb(25,23,24)" stroke="rgb(25,23,24)" stroke-width="1" opacity="0.14901960784313725" d="M 423.5 247 L 421.5 250 L 410 256.5 L 408 268.5 L 401.5 277 L 389.5 283 L 370.5 283 Q 357.9 280.6 352 271.5 L 347 261.5 Q 348.5 255.5 345.5 254 L 337.5 249 L 336 251.5 Q 337.1 261.1 334 266.5 Q 331.4 273.9 325.5 278 L 314.5 282 L 315.5 280 Q 326.2 279.2 330 271.5 L 335 259.5 Q 334.2 251.8 336 248 L 338.5 248 L 348 254.5 L 349 263.5 L 355 274 L 367.5 281 L 385.5 282 Q 398.7 279.7 405 270.5 L 408 263.5 L 408 258.5 L 410.5 254 Q 418.7 252.2 423.5 247 Z " /><path fill="rgb(25,23,24)" stroke="rgb(25,23,24)" stroke-width="1" opacity="0.14901960784313725" d="M 425.5 247 L 427 254.5 L 426 254.5 L 425.5 247 Z " /><path fill="rgb(25,23,24)" stroke="rgb(25,23,24)" stroke-width="1" opacity="0.14901960784313725" d="M 294.5 308 L 358 308.5 L 299.5 309 L 298.5 310 L 240.5 312 L 227.5 315 L 218.5 315 L 203.5 318 L 193.5 318 L 158.5 325 L 151.5 325 L 128.5 330 L 120.5 333 L 106.5 335 L 83 342 L 82 345.5 L 84.5 350 L 86 350.5 L 84.5 351 Q 80.3 349.7 81 343.5 L 83.5 340 L 95.5 338 L 102.5 335 L 129.5 328 L 144.5 325 L 157.5 324 L 188.5 317 L 214.5 315 L 215.5 314 L 230.5 313 L 238.5 311 L 247.5 311 L 248.5 310 L 273.5 310 L 274.5 309 L 293.5 309 L 294.5 308 Z " /><path fill="rgb(25,23,24)" stroke="rgb(25,23,24)" stroke-width="1" opacity="0.14901960784313725" d="M 360.5 309 L 388.5 309 L 389.5 310 L 412 310.5 L 387.5 311 L 386.5 310 L 360.5 310 L 360.5 309 Z " /><path fill="rgb(25,23,24)" stroke="rgb(25,23,24)" stroke-width="1" opacity="0.14901960784313725" d="M 413.5 311 L 431.5 312 L 447.5 315 L 467.5 316 L 468.5 317 L 485.5 319 L 490.5 321 L 495.5 321 L 500.5 323 L 524.5 326 L 550.5 332 L 554.5 334 L 562.5 335 L 573.5 339 L 577.5 339 L 583 342.5 L 582.5 348 Q 583 342.5 579.5 341 L 512.5 325 L 504.5 325 L 470.5 318 L 461.5 318 L 460.5 317 L 452.5 317 L 451.5 316 L 443.5 316 L 442.5 315 L 413.5 312 L 413.5 311 Z " /><path fill="rgb(25,23,24)" stroke="rgb(25,23,24)" stroke-width="1" opacity="0.14901960784313725" d="M 304.5 319 L 382.5 320 L 383.5 321 L 396.5 321 L 397.5 322 L 408.5 322 L 409.5 323 L 418.5 323 L 426 324.5 L 418.5 325 L 417.5 324 L 373.5 322 L 372.5 321 L 334.5 321 L 333.5 320 L 332.5 321 L 284.5 321 L 283.5 322 L 270.5 322 L 269.5 323 L 234.5 325 L 234.5 324 L 244.5 324 L 245.5 323 L 272.5 321 L 273.5 320 L 303.5 320 L 304.5 319 Z " /><path fill="rgb(25,23,24)" stroke="rgb(25,23,24)" stroke-width="1" opacity="0.14901960784313725" d="M 427.5 324 L 433 324.5 L 427.5 325 L 427.5 324 Z " /><path fill="rgb(25,23,24)" stroke="rgb(25,23,24)" stroke-width="1" opacity="0.14901960784313725" d="M 216.5 325 L 229 325.5 L 216.5 326 L 216.5 325 Z " /><path fill="rgb(25,23,24)" stroke="rgb(25,23,24)" stroke-width="1" opacity="0.14901960784313725" d="M 435.5 325 L 446.5 325 L 466.5 329 L 473.5 329 L 480.5 331 L 505.5 334 L 518.5 338 L 537.5 341 L 553.5 346 L 568 348 L 567.5 350 L 536.5 342 L 527.5 341 L 523.5 339 L 512.5 338 L 502.5 335 L 477.5 332 L 452.5 327 L 435.5 326 L 435.5 325 Z " /><path fill="rgb(25,23,24)" stroke="rgb(25,23,24)" stroke-width="1" opacity="0.14901960784313725" d="M 210.5 326 L 215 326.5 L 185.5 332 L 165.5 334 L 143.5 339 L 143.5 338 L 163.5 333 L 183.5 331 L 190.5 329 L 197.5 329 L 210.5 326 Z " /><path fill="rgb(25,23,24)" stroke="rgb(25,23,24)" stroke-width="1" opacity="0.14901960784313725" d="M 136.5 339 L 140 339.5 L 136.5 340 L 136.5 339 Z " /><path fill="rgb(25,23,24)" stroke="rgb(25,23,24)" stroke-width="1" opacity="0.14901960784313725" d="M 129.5 340 L 135 340.5 L 125.5 342 L 105.5 348 L 105.5 347 L 129.5 340 Z " /><path fill="rgb(25,23,24)" stroke="rgb(25,23,24)" stroke-width="1" opacity="0.14901960784313725" d="M 102.5 347 L 103 349 L 96 350 Q 94.6 346 101.5 348 L 102.5 347 Z " /><path fill="rgb(25,23,24)" stroke="rgb(25,23,24)" stroke-width="1" opacity="0.14901960784313725" d="M 94.5 349 L 93.5 351 L 91 350.5 L 94.5 349 Z " /><path fill="rgb(25,23,24)" stroke="rgb(25,23,24)" stroke-width="1" opacity="0.14901960784313725" d="M 569.5 349 L 576 351.5 L 574.5 351 Q 569 352 569.5 349 Z " /><path fill="rgb(25,23,24)" stroke="rgb(25,23,24)" stroke-width="1" opacity="0.14901960784313725" d="M 581.5 349 L 580.5 351 L 578 350.5 L 581.5 349 Z " /><path fill="rgb(0,0,0)" stroke="rgb(0,0,0)" stroke-width="1" opacity="0" d="M 0 0 L 635 0 L 635 393 L 0 393 L 0 0 Z M 372 12 L 362 16 Q 354 20 353 30 L 340 35 L 332 41 Q 322 49 317 61 L 311 55 Q 304 46 294 42 L 279 39 L 275 33 L 271 28 L 262 25 L 250 25 L 240 28 Q 234 31 233 39 L 228 44 L 226 48 L 225 56 L 214 70 L 209 82 Q 211 87 208 89 L 208 97 L 210 108 L 219 127 L 236 141 L 252 146 L 262 146 L 272 144 L 300 135 L 311 129 Q 319 123 324 113 L 325 116 L 333 123 L 342 128 L 356 132 L 363 132 L 378 135 Q 400 137 413 128 L 424 116 L 430 102 L 432 91 L 432 78 L 430 67 L 422 52 Q 417 43 407 40 Q 408 37 405 38 L 406 32 L 405 29 L 402 26 L 393 17 L 388 12 L 372 12 Z M 346 155 L 338 157 L 328 163 L 318 179 L 315 195 L 301 190 Q 287 188 280 193 Q 271 194 267 191 L 262 192 Q 252 194 249 190 Q 229 188 223 200 Q 219 195 212 194 Q 193 193 188 204 L 176 198 Q 162 196 156 202 L 145 182 Q 138 172 125 169 L 114 169 Q 104 170 99 175 L 90 188 L 80 180 L 72 178 L 56 179 L 47 184 L 38 194 L 33 210 L 33 223 L 36 238 L 43 255 L 50 264 Q 59 273 75 276 L 82 289 L 88 294 L 94 297 Q 98 296 100 298 L 114 298 L 127 293 L 135 284 L 138 271 L 137 265 L 142 260 L 141 259 L 143 259 Q 145 258 143 257 L 145 257 L 148 255 L 150 263 L 156 273 L 168 283 L 181 288 Q 186 287 188 289 Q 214 288 226 273 Q 228 272 227 275 Q 228 277 230 275 L 229 277 L 230 279 L 237 283 Q 241 282 243 284 L 249 284 L 257 282 L 256 281 L 258 281 Q 259 277 266 278 L 268 278 L 268 280 L 270 279 L 270 281 L 272 280 L 271 282 L 275 283 Q 284 284 290 281 L 289 280 L 291 280 L 296 278 L 296 276 L 299 278 L 301 277 L 300 279 L 303 280 L 305 279 L 305 281 L 308 280 L 309 281 L 307 282 L 313 282 L 315 282 L 320 281 L 319 280 L 321 280 L 324 279 L 324 277 L 326 278 L 331 273 L 336 261 L 336 252 L 335 251 L 336 249 L 337 251 L 337 250 L 340 251 L 342 250 L 341 252 L 346 254 Q 348 255 347 262 L 351 270 L 353 270 L 352 272 Q 358 281 371 283 L 390 283 L 402 277 L 408 269 L 410 257 L 422 250 Q 424 249 422 248 L 424 248 L 425 246 L 426 255 L 428 255 L 427 259 L 429 258 L 428 260 L 435 274 L 447 283 L 462 288 L 481 288 Q 492 285 501 279 L 502 282 L 502 281 L 503 281 L 502 283 L 503 286 Q 509 294 521 296 Q 530 297 535 293 L 538 293 Q 542 299 552 301 Q 564 303 569 298 L 579 305 L 587 307 L 598 306 L 607 301 L 617 285 L 621 265 L 619 244 Q 616 233 610 227 L 604 220 L 584 213 L 576 213 L 575 214 L 570 214 L 562 208 L 549 207 L 536 201 Q 519 200 513 208 L 502 201 L 495 199 L 487 199 L 477 203 L 474 206 L 471 203 L 470 204 L 470 203 Q 465 197 456 195 L 442 196 L 441 186 L 434 171 Q 427 160 413 157 L 400 157 L 388 162 L 384 166 L 385 167 L 384 166 L 380 172 L 377 168 L 376 168 L 376 167 L 375 165 L 366 157 L 357 155 L 346 155 Z M 295 308 L 294 309 L 275 309 L 274 310 L 249 310 L 248 311 L 239 311 L 231 313 L 216 314 L 215 315 L 189 317 L 158 324 L 145 325 L 130 328 L 103 335 L 96 338 L 84 340 L 81 344 L 82 349 L 86 351 L 89 350 L 92 351 L 94 351 L 92 350 L 94 349 L 97 350 L 99 349 Q 104 351 103 347 L 108 348 L 108 346 L 112 347 L 111 346 L 113 346 L 122 344 L 121 343 L 123 343 L 130 341 L 135 341 L 135 339 L 140 340 L 139 339 L 141 338 L 143 338 L 146 339 L 145 338 L 147 338 L 172 333 L 179 333 L 180 332 L 204 329 L 203 328 L 205 328 L 210 328 L 209 327 L 209 326 L 215 327 L 215 325 L 217 326 L 229 326 L 229 324 Q 233 323 235 325 L 245 325 L 242 324 L 242 323 L 246 324 L 284 322 L 285 321 L 333 321 L 334 320 L 335 321 L 373 321 L 374 322 L 389 322 L 390 323 L 404 323 L 405 324 L 426 325 L 428 325 L 436 324 L 435 326 L 446 326 L 478 332 L 491 333 L 513 338 Q 517 339 519 337 L 518 339 L 537 342 L 562 349 L 567 349 L 571 351 L 576 350 L 581 351 L 582 348 Q 584 349 583 343 L 578 339 L 570 338 L 563 335 L 555 334 L 543 330 L 519 325 L 501 323 L 486 319 L 469 317 L 468 316 L 460 316 L 459 315 L 448 315 L 432 312 L 413 311 L 412 310 L 390 310 L 389 309 L 361 309 L 360 310 L 358 308 L 295 308 Z " /><path fill="rgb(0,0,0)" stroke="rgb(0,0,0)" stroke-width="1" opacity="0" d="M 278.5 281 L 283 281.5 L 278.5 282 L 278.5 281 Z " /><path fill="rgb(0,0,0)" stroke="rgb(0,0,0)" stroke-width="1" opacity="0" d="M 419.5 323 L 423 323.5 L 419.5 324 L 419.5 323 Z " /><path fill="rgb(210,232,176)" stroke="rgb(210,232,176)" stroke-width="1" opacity="1" d="M 357.5 43 L 367.5 44 L 381.5 48 L 390.5 48 L 399.5 50 L 408 57.5 L 413 65.5 Q 412.4 71.6 415 74.5 L 415 87.5 L 413 98 Q 410.3 99.1 411 96.5 Q 408 90.5 399 90.5 Q 402.2 88.2 401 81.5 L 399 77 Q 396.7 74.4 390.5 75 L 386 78.5 L 385 85.5 L 389.5 91 L 392 92.5 L 391 101.5 L 398.5 107 L 405.5 107 L 407.5 106 L 407 107.5 L 402.5 113 L 390.5 118 L 374.5 118 L 351.5 113 Q 341.8 109.7 336 102.5 L 332 95 L 339.5 98 L 344.5 98 L 350 95 Q 351.6 92.9 351 87.5 L 350.5 86 L 353.5 86 L 359 80.5 Q 360.8 71.8 355.5 70 L 349.5 69 L 344 73.5 L 343 79.5 L 344 82 Q 333.8 80 330.5 86 L 330 74.5 Q 332.6 71.6 332 65.5 L 335 59.5 L 342.5 50 L 350.5 45 L 357.5 43 Z M 352 51 L 350 52 Q 346 53 347 57 L 352 56 L 358 56 L 358 52 L 352 51 Z M 396 56 L 394 57 L 392 60 L 402 65 Q 405 66 403 61 Q 401 56 396 56 Z M 360 86 L 357 89 L 357 94 L 360 100 L 369 104 L 374 104 L 380 101 Q 385 99 384 92 Q 383 89 380 90 L 377 95 L 373 98 L 367 97 Q 362 96 363 89 L 360 86 Z " /><path fill="rgb(210,232,176)" stroke="rgb(210,232,176)" stroke-width="1" opacity="1" d="M 276.5 52 L 286.5 54 L 296 59.5 L 302 66.5 L 306 74.5 L 309 82.5 L 309 88 Q 305.8 85.4 298.5 86 L 296 87 Q 296.3 80.5 291.5 78 L 284.5 76 L 279 80.5 Q 277.6 89.9 282.5 93 Q 287.1 94.3 285 88.5 L 284 85.5 L 287.5 84 L 292 90.5 Q 288.5 92 290 98.5 Q 293 104 303.5 102 L 308.5 99 L 309 102.5 L 303 113 L 287.5 122 L 283.5 122 L 270.5 127 L 265.5 128 L 250.5 128 L 246.5 127 L 238 121.5 Q 247.1 121.6 251 116.5 L 253 110.5 L 251 106 L 246 105 L 246 96.5 L 247.5 95 L 250 96.5 L 252.5 102 L 256 99.5 Q 256 90.5 249.5 88 Q 241.6 87.1 240 92.5 L 239 98.5 L 242 103.5 Q 241.3 105.8 237.5 105 L 233 109.5 L 231.5 114 L 225 98.5 L 225 80.5 Q 228.3 70.8 235.5 65 L 243.5 61 L 252.5 60 L 265.5 56 L 267.5 54 L 276.5 52 Z M 282 58 L 276 62 L 278 65 L 283 63 L 285 64 Q 289 66 288 62 L 286 59 L 282 58 Z M 239 71 L 236 72 L 234 77 L 236 80 Q 238 75 244 75 Q 246 69 239 71 Z M 278 96 Q 271 100 261 101 L 258 104 L 259 110 L 262 111 L 267 111 L 274 108 L 281 107 L 284 103 L 283 98 Q 282 95 278 96 Z " /><path fill="rgb(210,232,176)" stroke="rgb(210,232,176)" stroke-width="1" opacity="1" d="M 353.5 72 L 355 76 Q 350.9 77.7 352 73.5 L 353.5 72 Z " /><path fill="rgb(210,232,176)" stroke="rgb(210,232,176)" stroke-width="1" opacity="1" d="M 392 79 Q 397.6 77.1 396 82 Q 390.4 83.9 392 79 Z " /><path fill="rgb(139,196,70)" stroke="rgb(139,196,70)" stroke-width="1" opacity="1" d="M 380.5 24 L 384 25.5 L 386 28.5 Q 383.5 30 387 31.5 L 388.5 35 L 393.5 34 Q 395.8 34.8 395 38.5 L 390 43.5 L 392.5 46 L 395 46.5 L 387.5 47 L 387.5 46 L 389 45.5 L 384 42.5 L 385 40.5 L 383.5 38 L 379.5 39 L 376.5 35 L 376 41.5 L 374.5 43 L 369.5 44 L 369.5 42 L 367.5 43 L 368 41.5 L 367 39.5 L 368 37.5 L 366 35.5 L 365 30.5 L 368.5 26 L 372 27 L 372.5 29 L 374.5 29 L 376.5 28 L 376.5 30 Q 379.5 30.9 378 26.5 L 380.5 24 Z M 384 27 L 382 29 L 384 29 L 384 27 Z M 386 31 L 385 34 L 386 34 L 386 31 Z M 381 36 L 380 38 L 382 37 L 381 36 Z M 386 38 Q 384 41 387 40 L 386 38 Z " /><path fill="rgb(139,196,70)" stroke="rgb(139,196,70)" stroke-width="1" opacity="1" d="M 247.5 37 Q 252.5 36.5 253 40.5 L 254.5 45 L 256 44.5 L 256 49.5 Q 252.3 50.8 253 55 L 243 60 L 243 58 Q 245.7 59.1 245 56.5 L 242.5 56 L 239 55 L 238 51.5 L 240 48 Q 243.8 49 245 46.5 L 246 38.5 L 247.5 37 Z M 249 46 L 249 48 L 251 49 Q 252 45 249 46 Z " /><path fill="rgb(139,196,70)" stroke="rgb(139,196,70)" stroke-width="1" opacity="1" d="M 260 38 Q 264.6 36.8 266 39.5 Q 267.8 46.8 264 48.5 L 266 49 Q 264.7 52.3 269.5 51 Q 270.7 48.8 272 51.5 L 263.5 55 L 263.5 53 L 258.5 54 L 257.5 52 L 260 51.5 L 257 50.5 Q 258.7 44.3 256 42.5 Q 258 44.2 260 40.5 L 260 38 Z " /><path fill="rgb(139,196,70)" stroke="rgb(139,196,70)" stroke-width="1" opacity="1" d="M 288.5 52 L 289.5 54 L 288.5 52 Z " /><path fill="rgb(139,196,70)" stroke="rgb(139,196,70)" stroke-width="1" opacity="1" d="M 334 54 Q 337 52.8 336 56.5 L 333 58.5 L 334 54 Z " /><path fill="rgb(139,196,70)" stroke="rgb(139,196,70)" stroke-width="1" opacity="1" d="M 241.5 57 L 242 58.5 L 240 59.5 L 241.5 57 Z " /><path fill="rgb(139,196,70)" stroke="rgb(139,196,70)" stroke-width="1" opacity="1" d="M 331.5 59 L 332 62.5 L 330 65.5 L 330 70.5 L 328 73.5 L 328 81.5 L 327 82.5 L 330 90.5 L 329 92.5 L 333.5 103 L 340 108.5 Q 338.8 112.3 342.5 111 L 352.5 116 L 365.5 117 L 368.5 119 Q 374 117.5 375.5 120 L 387.5 120 L 395.5 118 L 399 119 L 401.5 115 L 406 114 L 410.5 107 L 412 110.5 L 409.5 114 L 407 115.5 L 406 117.5 L 406.5 119 L 404.5 119 L 399.5 119 L 391.5 123 L 377.5 123 Q 376 120.5 370.5 122 L 367.5 120 L 359.5 120 L 348.5 117 L 337.5 112 L 335 109.5 L 327 96.5 L 326 89.5 L 326 87.5 Q 327.8 81.3 325 79.5 L 328 68.5 L 328 66.5 L 328 63.5 L 331.5 59 Z " /><path fill="rgb(139,196,70)" stroke="rgb(139,196,70)" stroke-width="1" opacity="1" d="M 414.5 59 L 416 61.5 L 413.5 62 L 412 60.5 L 414 60.5 L 414.5 59 Z " /><path fill="rgb(139,196,70)" stroke="rgb(139,196,70)" stroke-width="1" opacity="1" d="M 300.5 61 L 302.5 64 L 300 63 L 300.5 61 Z " /><path fill="rgb(139,196,70)" stroke="rgb(139,196,70)" stroke-width="1" opacity="1" d="M 303.5 65 Q 305.8 64.3 305 66.5 Q 310.9 71.6 312 81.5 L 311 81.5 Q 311.7 78.9 309 80 L 309 77.5 L 303.5 65 Z " /><path fill="rgb(139,196,70)" stroke="rgb(139,196,70)" stroke-width="1" opacity="1" d="M 415 65 Q 418 63.8 417 67.5 L 417 69.5 L 418 71.5 L 416 72.5 L 416 70.5 L 415 65 Z " /><path fill="rgb(139,196,70)" stroke="rgb(139,196,70)" stroke-width="1" opacity="1" d="M 418.5 75 L 420 79.5 L 419 81.5 L 420 85.5 L 419 87.5 L 420 90.5 Q 416.4 93.4 418 101.5 L 414.5 106 L 412 105.5 L 413 102.5 L 414.5 99 Q 416.8 99.8 416 97.5 L 417 94.5 Q 414.7 93.3 416 88.5 Q 418.7 86.2 418 80.5 L 417 76.5 L 418.5 75 Z " /><path fill="rgb(139,196,70)" stroke="rgb(139,196,70)" stroke-width="1" opacity="1" d="M 310.5 83 Q 312.8 82.3 312 84.5 L 310.5 83 Z " /><path fill="rgb(139,196,70)" stroke="rgb(139,196,70)" stroke-width="1" opacity="1" d="M 221 84 L 223 84.5 L 223 97.5 L 227 107.5 L 227 112 Q 229.7 110.9 229 113.5 L 234 117.5 L 234 119.5 L 236.5 123 Q 239.8 121.9 239 124.5 L 244.5 128 L 247.5 128 L 253.5 131 L 258.5 131 L 262.5 129 L 270.5 129 L 273.5 127 L 284.5 125 L 293.5 120 L 299 119 L 296.5 123 L 287.5 127 L 276.5 128 L 274.5 130 L 267.5 132 L 265.5 132 Q 260.9 134.9 252.5 134 L 235 127 L 234 123 L 229 119.5 L 224 111.5 L 221 97.5 Q 223.5 96 220 94.5 L 221 84 Z " /><path fill="rgb(139,196,70)" stroke="rgb(139,196,70)" stroke-width="1" opacity="1" d="M 310 91 Q 314.5 89.3 313 94.5 L 313 96.5 L 314 104.5 L 309 113.5 L 304.5 118 L 300 119 L 301.5 115 L 305 114 Q 303.8 111 307.5 112 Q 305.9 110.3 309 108.5 L 312 96 L 310 96 L 310 91 Z " /><path fill="rgb(139,196,70)" stroke="rgb(139,196,70)" stroke-width="1" opacity="1" d="M 347.5 169 Q 358.3 167.7 363 172.5 L 363 175.5 L 367 179.5 L 367 207.5 L 373.5 217 L 382.5 218 L 389 214 L 388 211.5 Q 390.8 209.8 389 203.5 L 388 201 L 390 200.5 L 389 198.5 L 390 197.5 L 390 186.5 L 390 184.5 L 392 177.5 L 396.5 173 L 408.5 171 Q 411.5 174 417.5 174 L 421 177.5 L 421 179.5 L 426 185.5 L 428 202.5 L 427 203.5 L 425 224.5 L 417.5 235 L 416 234.5 L 414 239 L 411.5 239 L 402.5 244 L 399.5 244 L 398 243.5 L 397 246.5 L 397.5 248 L 395 249.5 L 396 257.5 L 395 261 L 393 260.5 L 393.5 259 Q 388.7 257.3 390 261.5 L 393 263.5 L 391 264.5 Q 393.8 266.2 389.5 268 Q 384.5 267 383.5 270 L 375.5 270 L 372.5 268 L 370.5 268 L 364 263.5 Q 359.2 258.3 361 246.5 L 357.5 242 L 351.5 242 L 346 239 L 344.5 236 Q 339.5 236.5 339 232.5 L 337 229.5 L 331 217.5 Q 332.5 212 330 210.5 L 331 208.5 L 330 207.5 L 330 196.5 L 332 190.5 Q 329.5 189 331 183.5 L 334 180.5 Q 333.3 176.8 335.5 176 L 339 175 Q 337.9 172.3 340.5 173 L 343.5 170 L 347.5 169 Z M 417 184 Q 414 188 418 187 L 417 184 Z M 392 193 L 393 201 L 394 196 Q 395 192 392 193 Z M 396 221 L 396 224 Q 399 223 396 221 Z M 388 242 L 387 245 L 388 245 L 388 242 Z M 386 255 L 384 258 L 386 257 L 386 255 Z " /><path fill="rgb(139,196,70)" stroke="rgb(139,196,70)" stroke-width="1" opacity="1" d="M 116.5 183 L 121.5 183 L 125.5 186 L 128.5 186 L 134 191.5 L 138 196.5 L 139 203.5 L 141 207.5 Q 137.5 209 140 210.5 L 143 215.5 L 143 231.5 L 137 240.5 L 138 244.5 L 131.5 251 Q 127.8 250.3 127 252.5 L 128 254.5 Q 126.8 257.3 125.5 255 L 122 257.5 L 123 259.5 L 121 259.5 L 120 262.5 Q 124.6 264.9 124 272.5 L 119.5 280 L 111.5 284 L 104.5 285 L 95 282 L 91 275.5 L 90 267.5 L 86.5 263 L 82 263 Q 83.1 265.7 80.5 265 L 79.5 262 L 75.5 262 L 70 260 Q 71.3 256.3 65.5 258 L 63 253 L 59 252 L 49 230.5 L 48 225.5 L 48 206.5 L 50 201.5 L 49.5 200 L 50.5 201 L 55.5 196 L 62.5 192 L 71.5 192 L 82 200 L 81 203.5 L 82 208 L 84 208.5 L 83 209.5 L 83 217.5 L 85 219.5 L 88 229.5 L 91.5 233 L 94.5 234 Q 96.3 231.2 102.5 233 L 104 231.5 L 107 227.5 L 107 224.5 L 107 222.5 Q 108.3 217.8 106 216.5 L 106 214.5 L 103 193.5 L 108.5 186 Q 114.9 186.9 116.5 183 Z M 133 243 Q 130 245 133 246 Q 136 245 133 243 Z " /><path fill="rgb(139,196,70)" stroke="rgb(139,196,70)" stroke-width="1" opacity="1" d="M 243.5 203 L 250.5 207 L 255.5 207 Q 259.2 203.7 267.5 205 L 273 207 Q 271.9 209.7 274.5 209 L 275.5 208 L 277.5 210 L 278.5 209 L 281 210.5 L 285.5 205 L 295.5 204 L 305.5 206 L 310 209.5 Q 309.3 211.8 311.5 211 L 317.5 220 L 319 219.5 L 319 221.5 L 321 228.5 L 321 233.5 L 323 237.5 L 323 255.5 L 318.5 266 L 317.5 265 L 314.5 268 L 308.5 268 L 304 264.5 L 303.5 261 L 302 261.5 Q 304.5 258 303 250.5 L 300 236 L 291.5 235 L 288 238.5 L 288 257.5 L 287 259.5 L 288 264.5 L 287 267 L 278.5 270 Q 277.3 267 273 268 L 270 263.5 L 267 238.5 L 264.5 236 Q 257.7 234.3 256 237.5 L 254 248.5 L 255 249.5 L 255 265 L 253 265.5 L 254 266.5 L 249.5 271 L 240.5 269 L 238 266.5 Q 238.8 264.3 236.5 265 L 236 262.5 Q 236.5 255 233 251.5 L 233 240.5 L 231 238.5 L 231 217.5 L 234.5 209 L 236 209 Q 234.5 205.2 237.5 206 L 243.5 203 Z M 309 217 L 308 221 L 310 220 L 309 217 Z M 232 222 L 232 224 L 234 223 L 232 222 Z " /><path fill="rgb(139,196,70)" stroke="rgb(139,196,70)" stroke-width="1" opacity="1" d="M 208.5 208 L 213 209 Q 211.9 211.7 214.5 211 L 219 216.5 L 220 231.5 L 221 232.5 L 221 245.5 L 218 259.5 L 211.5 267 L 209.5 266 Q 207 267.2 208 271 L 203.5 271 L 197.5 274 L 185.5 274 L 174.5 270 L 166 261.5 Q 163.7 251.3 158 244.5 L 157 222.5 L 156 220.5 L 158 220.5 Q 157.5 215.5 161.5 215 L 165 214.5 L 163 213.5 Q 165 210.5 170.5 211 L 175 212 L 178 217.5 L 178 219.5 L 178 233.5 Q 180.6 236.4 180 242.5 L 182.5 247 L 187.5 251 L 189.5 251 L 193.5 248 L 194.5 250 L 199 249 L 202 240.5 Q 199.2 238.7 201 232.5 L 199.5 230 L 198 230.5 Q 200.8 228.8 199 222.5 Q 196.3 220.2 197 214.5 L 201.5 209 Q 207 210.5 208.5 208 Z " /><path fill="rgb(139,196,70)" stroke="rgb(139,196,70)" stroke-width="1" opacity="1" d="M 448.5 209 L 452.5 211 L 457.5 210 L 461 212.5 L 460 216.5 L 461 219 Q 465.1 217.7 464 221 L 459 222 Q 457.9 224.7 460.5 224 Q 463.2 225.3 461 226.5 L 459 241.5 L 460 245.5 L 463.5 249 Q 466.8 251.7 473.5 251 L 480 246.5 L 481 240.5 L 484 236.5 L 483 235.5 L 483 220.5 L 486 213 L 491.5 212 L 494 213 Q 492.9 215.7 495.5 215 L 497.5 214 L 503 220.5 L 504 235.5 L 503 238.5 L 505 242.5 L 501 248.5 Q 503.5 250 500 251.5 L 497 263 L 492 265.5 L 489.5 269 Q 486.9 268.3 488 271 L 485.5 271 L 479.5 273 L 477.5 273 L 475.5 274 L 473.5 274 L 464.5 273 L 462.5 273 L 452 269 Q 453.1 266.3 450.5 267 L 446 263.5 L 440 254.5 Q 440.6 249.9 438 248.5 L 438 243.5 Q 442 241.5 438 239.5 L 439 219.5 L 442.5 214 L 448.5 209 Z M 499 240 Q 498 243 501 242 Q 502 239 499 240 Z " /><path fill="rgb(139,196,70)" stroke="rgb(139,196,70)" stroke-width="1" opacity="1" d="M 527.5 214 Q 529 216.5 534.5 215 L 540 219.5 Q 539.3 221.8 541.5 221 L 541.5 219 L 544 220 L 544.5 222 L 545.5 221 L 553.5 221 Q 561 223 564.5 229 L 571.5 229 L 575.5 227 L 577.5 227 L 583.5 227 L 599 233.5 L 599 235.5 L 603 242.5 Q 600.5 244 604 245.5 L 606 250.5 L 606 265.5 L 604 270.5 L 605 273.5 L 602 278.5 L 601 285.5 L 601.5 287 L 599.5 287 Q 597.3 286.3 598 288.5 L 591.5 294 L 589.5 294 L 583.5 292 L 581 289.5 L 580 281.5 L 584 262.5 L 580.5 258 L 575.5 256 L 569 261.5 L 566 273.5 L 566 279.5 L 562 284.5 L 562 287 Q 553.3 288.5 550 285 L 547 279.5 L 547 270.5 L 549 267.5 L 549 253.5 L 544.5 250 Q 543 252.5 537.5 251 L 535 253.5 L 534 255.5 L 535 257.5 L 532 266.5 L 532 271.5 L 528.5 279 L 526 278 Q 527.8 282.9 521.5 281 L 514 274.5 L 513 271.5 L 513 246.5 Q 516.6 243.6 515 235.5 L 519 228.5 L 519 221.5 Q 516.8 220.3 519.5 219 Q 525.4 218.4 527.5 214 Z M 526 218 L 524 222 L 524 223 L 528 221 L 526 218 Z M 602 253 L 601 256 L 602 256 L 602 253 Z M 551 260 L 550 267 L 551 267 L 551 260 Z " /><path fill="rgb(104,140,67)" stroke="rgb(104,140,67)" stroke-width="1" opacity="0.996078431372549" d="M 380.5 21 Q 387 20 388 24.5 L 389 27.5 L 388 32 L 393.5 31 L 398 34.5 Q 399.5 41.5 395.5 43 Q 392.9 42.3 394 45 Q 407.4 47 414 56.5 L 421 68.5 L 423 77.5 L 423 90.5 L 419 105.5 L 411.5 116 L 405.5 121 L 414 111.5 L 420 100.5 Q 419 93.5 422 90.5 L 422 77.5 Q 418.9 60.1 407.5 51 Q 401 46.6 392 46 Q 390.5 42.3 393.5 43 L 396 42 Q 397.6 39.9 397 34.5 L 392.5 32 L 387 34 L 388 27.5 L 385.5 23 L 380.5 22 L 375.5 29 Q 373.3 29.8 374 27.5 L 369.5 24 L 365 26 L 363 29.5 L 363 33.5 L 368 40.5 L 365.5 41 L 366 39.5 L 362 33.5 L 362 29.5 L 366.5 24 L 369.5 23 L 376 27 L 378.5 22 L 380.5 21 Z " /><path fill="rgb(104,140,67)" stroke="rgb(104,140,67)" stroke-width="1" opacity="0.996078431372549" d="M 248.5 34 L 256 39.5 L 256.5 41 L 259.5 35 Q 266.8 33.8 268 38.5 L 269 44.5 L 267 48.5 L 273.5 49 Q 275 46.5 280.5 48 L 289.5 50 L 303 58.5 L 311 68.5 L 311 71.5 L 315 79.5 L 315 91.5 Q 318 95.5 317 103.5 L 313.5 111 L 313 109.5 Q 317 106 316 97.5 Q 312.5 91 314 79.5 L 310 69.5 L 299.5 57 L 297.5 57 L 289.5 51 L 276.5 49 L 266 51 L 268 41.5 L 264.5 36 Q 260 35 259 37.5 L 256.5 42 L 251.5 36 Q 247.8 35.8 248.5 34 Z " /><path fill="rgb(104,140,67)" stroke="rgb(104,140,67)" stroke-width="1" opacity="0.996078431372549" d="M 245.5 35 L 247 35.5 L 245 36 L 244 41.5 L 245 47 L 239.5 46 L 237 47 L 236 51.5 L 239.5 57 Q 241.8 56.3 241 58.5 Q 231.8 62.3 226 69.5 L 223 73.5 L 219.5 83 L 219 81.5 L 223 71.5 L 231.5 63 L 239 59 Q 240.1 56.3 237.5 57 Q 234.5 55 235 49.5 L 237.5 46 L 242.5 45 L 244 45.5 L 243 38.5 L 245.5 35 Z " /><path fill="rgb(104,140,67)" stroke="rgb(104,140,67)" stroke-width="1" opacity="0.996078431372549" d="M 376.5 35 L 379.5 39 L 383.5 38 Q 383 43.5 386.5 45 L 389 45.5 L 386.5 47 L 371 43.5 L 376 41.5 L 376.5 35 Z " /><path fill="rgb(104,140,67)" stroke="rgb(104,140,67)" stroke-width="1" opacity="0.996078431372549" d="M 355.5 39 L 364 39.5 L 352.5 41 L 352.5 40 L 355.5 39 Z " /><path fill="rgb(104,140,67)" stroke="rgb(104,140,67)" stroke-width="1" opacity="0.996078431372549" d="M 256.5 43 L 258 51.5 Q 255.8 52.8 258.5 54 L 265.5 52 L 265.5 53 Q 258.2 58.2 246.5 59 L 246.5 58 L 253 55 Q 252.2 50.7 256 49.5 L 256.5 43 Z " /><path fill="rgb(104,140,67)" stroke="rgb(104,140,67)" stroke-width="1" opacity="0.996078431372549" d="M 344.5 43 L 343.5 45 L 333 53.5 L 326.5 64 L 326 62.5 L 336.5 49 L 344.5 43 Z " /><path fill="rgb(104,140,67)" stroke="rgb(104,140,67)" stroke-width="1" opacity="0.996078431372549" d="M 352.5 51 L 358 53.5 L 356.5 56 L 354 55.5 L 357 55 Q 358.1 52.3 355.5 53 L 352.5 52 L 352.5 51 Z " /><path fill="rgb(104,140,67)" stroke="rgb(104,140,67)" stroke-width="1" opacity="0.996078431372549" d="M 350.5 52 L 348.5 56 L 352.5 55 L 352.5 56 L 347 57 L 350.5 52 Z " /><path fill="rgb(104,140,67)" stroke="rgb(104,140,67)" stroke-width="1" opacity="0.996078431372549" d="M 394.5 57 L 396 57.5 L 394 58 Q 392.7 61.3 397.5 60 L 402 63 L 398.5 58 L 397 57.5 L 398.5 57 L 403 61.5 L 403 64 Q 398.7 64.7 397.5 61 L 393 61 L 394.5 57 Z " /><path fill="rgb(104,140,67)" stroke="rgb(104,140,67)" stroke-width="1" opacity="0.996078431372549" d="M 279.5 59 L 284 59.5 Q 279.4 58.9 278 61.5 Q 277.3 63.8 279.5 63 L 279.5 64 Q 275.8 65.3 277 61.5 L 279.5 59 Z " /><path fill="rgb(104,140,67)" stroke="rgb(104,140,67)" stroke-width="1" opacity="0.996078431372549" d="M 285.5 60 L 288 64 Q 285 65.3 286 61.5 L 285.5 60 Z " /><path fill="rgb(104,140,67)" stroke="rgb(104,140,67)" stroke-width="1" opacity="0.996078431372549" d="M 281.5 62 L 285 62.5 L 281.5 63 L 281.5 62 Z " /><path fill="rgb(104,140,67)" stroke="rgb(104,140,67)" stroke-width="1" opacity="0.996078431372549" d="M 325.5 65 L 326 68.5 L 324 72.5 L 324 91.5 L 328 103.5 L 336.5 113 L 354 120.5 L 351.5 121 Q 336.2 116.8 328 105.5 L 323 91.5 L 323 72.5 L 325.5 65 Z " /><path fill="rgb(104,140,67)" stroke="rgb(104,140,67)" stroke-width="1" opacity="0.996078431372549" d="M 348.5 70 Q 355.8 68.8 358 72.5 L 359 79.5 L 354.5 85 L 353 84.5 L 357 81.5 L 358 74.5 L 356.5 72 L 354.5 77 L 355 75.5 Q 356.7 70.7 352.5 72 L 348.5 71 L 346 72 L 344.5 76 L 344 74.5 L 346.5 71 L 348.5 70 Z " /><path fill="rgb(104,140,67)" stroke="rgb(104,140,67)" stroke-width="1" opacity="0.996078431372549" d="M 239.5 71 Q 243.3 70.3 244 72.5 L 242.5 75 L 237 77.5 Q 237.8 79.8 235.5 79 L 235 76.5 L 235.5 75 L 236.5 77 Q 238.4 73.4 243 74 Q 244.3 70.7 239.5 72 L 239.5 71 Z " /><path fill="rgb(104,140,67)" stroke="rgb(104,140,67)" stroke-width="1" opacity="0.996078431372549" d="M 237.5 72 L 236.5 74 L 237.5 72 Z " /><path fill="rgb(104,140,67)" stroke="rgb(104,140,67)" stroke-width="1" opacity="0.996078431372549" d="M 351.5 73 L 353 76.5 L 351 75.5 L 351.5 73 Z " /><path fill="rgb(104,140,67)" stroke="rgb(104,140,67)" stroke-width="1" opacity="0.996078431372549" d="M 394.5 76 L 399 78.5 L 400 80.5 L 397 79.5 L 395.5 83 L 392 82.5 L 396 82 Q 397.6 77.1 392 79 L 391.5 81 L 391 79.5 L 396 77.5 L 394.5 76 Z " /><path fill="rgb(104,140,67)" stroke="rgb(104,140,67)" stroke-width="1" opacity="0.996078431372549" d="M 287.5 77 L 294 80.5 L 295 83.5 L 294 83.5 L 293 80 L 287.5 78 L 287.5 77 Z " /><path fill="rgb(104,140,67)" stroke="rgb(104,140,67)" stroke-width="1" opacity="0.996078431372549" d="M 388.5 77 L 387 79.5 L 386 84.5 L 391 90.5 L 388.5 89 Q 386.3 89.8 387 87.5 Q 384.4 86.1 385 81.5 L 388.5 77 Z " /><path fill="rgb(104,140,67)" stroke="rgb(104,140,67)" stroke-width="1" opacity="0.996078431372549" d="M 344.5 80 L 346 84 L 351 85.5 L 349 86.5 L 351 90.5 L 346.5 96 L 338.5 97 L 331 91.5 Q 331.1 85.1 335.5 83 L 344 82 L 344.5 80 Z " /><path fill="rgb(104,140,67)" stroke="rgb(104,140,67)" stroke-width="1" opacity="0.996078431372549" d="M 279.5 82 L 281 88.5 L 280 88.5 L 279.5 82 Z " /><path fill="rgb(104,140,67)" stroke="rgb(104,140,67)" stroke-width="1" opacity="0.996078431372549" d="M 286.5 82 L 284 85.5 L 283.5 88 L 283 85.5 L 284 83 L 286.5 82 Z " /><path fill="rgb(104,140,67)" stroke="rgb(104,140,67)" stroke-width="1" opacity="0.996078431372549" d="M 400.5 82 L 401 86.5 L 400 86.5 L 400.5 82 Z " /><path fill="rgb(104,140,67)" stroke="rgb(104,140,67)" stroke-width="1" opacity="0.996078431372549" d="M 218.5 85 L 219 88.5 L 218 88.5 L 218.5 85 Z " /><path fill="rgb(104,140,67)" stroke="rgb(104,140,67)" stroke-width="1" opacity="0.996078431372549" d="M 289.5 85 L 290.5 87 L 289.5 85 Z " /><path fill="rgb(104,140,67)" stroke="rgb(104,140,67)" stroke-width="1" opacity="0.996078431372549" d="M 295.5 85 L 296 88 Q 298.4 86.3 304.5 87 L 309 90.5 L 310 95.5 Q 306.8 102.3 295.5 101 L 291 98.5 Q 290.3 91.6 293 89 L 291 88.5 L 295 88 L 295.5 85 Z " /><path fill="rgb(104,140,67)" stroke="rgb(104,140,67)" stroke-width="1" opacity="0.996078431372549" d="M 359.5 87 Q 362.8 85.9 362 88.5 L 360.5 88 L 358 89.5 Q 358 97 362.5 100 L 370 102.5 L 367.5 103 L 360 98.5 Q 357 95.5 357 89.5 L 359.5 87 Z " /><path fill="rgb(104,140,67)" stroke="rgb(104,140,67)" stroke-width="1" opacity="0.996078431372549" d="M 399.5 88 L 399 89.5 L 399 92 L 404.5 92 L 409 95.5 L 410 102.5 L 405.5 106 L 398.5 106 L 392 101.5 L 391 97.5 L 394 92.5 L 392 91.5 Q 398 92 399.5 88 Z " /><path fill="rgb(104,140,67)" stroke="rgb(104,140,67)" stroke-width="1" opacity="0.996078431372549" d="M 244.5 89 L 241 93.5 Q 239.3 99.8 242 101.5 L 240 100.5 Q 238.3 90.8 244.5 89 Z " /><path fill="rgb(104,140,67)" stroke="rgb(104,140,67)" stroke-width="1" opacity="0.996078431372549" d="M 249.5 89 L 254 92.5 L 255 101 Q 249.8 103.1 251 98.5 L 248.5 95 L 247 94.5 L 248.5 94 L 252 100 Q 256 101.4 254 94.5 L 250.5 90 L 249.5 89 Z " /><path fill="rgb(104,140,67)" stroke="rgb(104,140,67)" stroke-width="1" opacity="0.996078431372549" d="M 284.5 89 L 285 92 L 281 90.5 L 282.5 91 Q 285 91.7 284.5 89 Z " /><path fill="rgb(104,140,67)" stroke="rgb(104,140,67)" stroke-width="1" opacity="0.996078431372549" d="M 380.5 90 L 384 92.5 L 383.5 95 L 381.5 91 L 379 92.5 L 377.5 95 L 378 93.5 L 380.5 90 Z " /><path fill="rgb(104,140,67)" stroke="rgb(104,140,67)" stroke-width="1" opacity="0.996078431372549" d="M 362.5 92 L 367 97.5 L 362 93.5 L 362.5 92 Z " /><path fill="rgb(104,140,67)" stroke="rgb(104,140,67)" stroke-width="1" opacity="0.996078431372549" d="M 245.5 95 L 246 96.5 L 244.5 100 L 244 97.5 L 245.5 95 Z " /><path fill="rgb(104,140,67)" stroke="rgb(104,140,67)" stroke-width="1" opacity="0.996078431372549" d="M 279.5 96 L 283 98.5 L 280.5 97 L 279.5 96 Z " /><path fill="rgb(104,140,67)" stroke="rgb(104,140,67)" stroke-width="1" opacity="0.996078431372549" d="M 376.5 96 L 375.5 98 L 376.5 96 Z " /><path fill="rgb(104,140,67)" stroke="rgb(104,140,67)" stroke-width="1" opacity="0.996078431372549" d="M 382.5 96 L 382 97.5 L 380.5 100 L 376.5 102 L 377.5 100 L 381 99 L 382.5 96 Z " /><path fill="rgb(104,140,67)" stroke="rgb(104,140,67)" stroke-width="1" opacity="0.996078431372549" d="M 218.5 98 L 219 101.5 L 218 101.5 L 218.5 98 Z " /><path fill="rgb(104,140,67)" stroke="rgb(104,140,67)" stroke-width="1" opacity="0.996078431372549" d="M 272.5 98 L 274 98.5 L 270.5 100 L 270.5 99 L 272.5 98 Z " /><path fill="rgb(104,140,67)" stroke="rgb(104,140,67)" stroke-width="1" opacity="0.996078431372549" d="M 368.5 98 L 374 98.5 L 368.5 99 L 368.5 98 Z " /><path fill="rgb(104,140,67)" stroke="rgb(104,140,67)" stroke-width="1" opacity="0.996078431372549" d="M 265.5 100 L 269 100.5 L 265.5 101 L 265.5 100 Z " /><path fill="rgb(104,140,67)" stroke="rgb(104,140,67)" stroke-width="1" opacity="0.996078431372549" d="M 283.5 100 L 284 101.5 L 279.5 107 L 277 106.5 L 282 103.5 L 283.5 100 Z " /><path fill="rgb(104,140,67)" stroke="rgb(104,140,67)" stroke-width="1" opacity="0.996078431372549" d="M 245.5 101 L 246 102.5 L 245 105 Q 249.7 104.3 251 108.5 L 252 112.5 L 250 117 L 243.5 120 L 237.5 120 L 233 116.5 Q 232.2 109.2 236.5 107 L 243 104.5 L 242.5 103 Q 243.8 105.3 245 102.5 L 245.5 101 Z " /><path fill="rgb(104,140,67)" stroke="rgb(104,140,67)" stroke-width="1" opacity="0.996078431372549" d="M 261.5 101 L 264 101.5 L 259.5 103 L 259.5 102 L 261.5 101 Z " /><path fill="rgb(104,140,67)" stroke="rgb(104,140,67)" stroke-width="1" opacity="0.996078431372549" d="M 372.5 102 L 375 102.5 L 372.5 103 L 372.5 102 Z " /><path fill="rgb(104,140,67)" stroke="rgb(104,140,67)" stroke-width="1" opacity="0.996078431372549" d="M 219.5 103 L 223 113.5 L 234.5 128 L 246.5 134 L 261.5 135 L 280.5 129 L 286.5 129 L 296.5 125 Q 306.5 120.5 312.5 112 L 311 114.5 L 306.5 120 L 286.5 130 L 281.5 130 L 261.5 136 L 250.5 136 Q 236.1 133.4 229 123.5 Q 220.6 115.8 219.5 103 Z " /><path fill="rgb(104,140,67)" stroke="rgb(104,140,67)" stroke-width="1" opacity="0.996078431372549" d="M 258.5 104 L 260.5 109 L 262 109.5 L 260.5 110 Q 256.7 108.7 258.5 104 Z " /><path fill="rgb(104,140,67)" stroke="rgb(104,140,67)" stroke-width="1" opacity="0.996078431372549" d="M 273.5 107 L 276 107.5 L 273.5 108 L 273.5 107 Z " /><path fill="rgb(104,140,67)" stroke="rgb(104,140,67)" stroke-width="1" opacity="0.996078431372549" d="M 270.5 108 L 272 108.5 L 267.5 110 L 267.5 109 L 270.5 108 Z " /><path fill="rgb(104,140,67)" stroke="rgb(104,140,67)" stroke-width="1" opacity="0.996078431372549" d="M 263.5 110 L 266 110.5 L 263.5 111 L 263.5 110 Z " /><path fill="rgb(104,140,67)" stroke="rgb(104,140,67)" stroke-width="1" opacity="0.996078431372549" d="M 356.5 121 L 362 121.5 L 356.5 122 L 356.5 121 Z " /><path fill="rgb(104,140,67)" stroke="rgb(104,140,67)" stroke-width="1" opacity="0.996078431372549" d="M 401.5 121 L 404 121.5 L 390.5 126 L 378.5 126 L 369 123.5 L 373.5 123 L 374.5 124 Q 384 122.5 389.5 125 L 401.5 121 Z " /><path fill="rgb(104,140,67)" stroke="rgb(104,140,67)" stroke-width="1" opacity="0.996078431372549" d="M 365.5 122 L 368 122.5 L 365.5 123 L 365.5 122 Z " /><path fill="rgb(104,140,67)" stroke="rgb(104,140,67)" stroke-width="1" opacity="0.996078431372549" d="M 347.5 166 L 355 166.5 L 344.5 168 L 344.5 167 L 347.5 166 Z " /><path fill="rgb(104,140,67)" stroke="rgb(104,140,67)" stroke-width="1" opacity="0.996078431372549" d="M 356.5 167 L 361.5 168 L 368 173.5 L 367.5 175 L 359.5 168 L 356.5 168 L 356.5 167 Z " /><path fill="rgb(104,140,67)" stroke="rgb(104,140,67)" stroke-width="1" opacity="0.996078431372549" d="M 341.5 168 L 343 168.5 L 333 176.5 L 328 190.5 L 328 211.5 Q 329.9 223.1 336 230.5 L 334.5 231 Q 329 223 327 211.5 L 327 190.5 L 329 182.5 L 335.5 172 L 341.5 168 Z " /><path fill="rgb(104,140,67)" stroke="rgb(104,140,67)" stroke-width="1" opacity="0.996078431372549" d="M 405.5 168 Q 407 170.5 412.5 169 L 421 173 L 421 175 Q 423.7 173.9 423 176.5 Q 428.2 178.8 428 186.5 L 427 186.5 L 426 181.5 L 418.5 173 L 411.5 170 L 399.5 170 L 391.5 175 L 392 173.5 Q 391.3 171.3 393.5 172 L 398.5 169 Q 404 170.5 405.5 168 Z " /><path fill="rgb(104,140,67)" stroke="rgb(104,140,67)" stroke-width="1" opacity="0.996078431372549" d="M 368.5 176 L 370 181.5 L 370 208.5 L 374.5 214 L 381.5 215 L 384 214 L 387 207.5 L 387 189.5 L 388 188.5 L 388 180.5 L 390.5 176 L 391 177.5 L 389 181.5 L 389 189.5 L 388 190.5 L 388 207.5 Q 386.8 213.3 382.5 216 L 375.5 216 L 370 211.5 L 369 208.5 L 369 181.5 Q 366.6 180.1 368.5 176 Z " /><path fill="rgb(104,140,67)" stroke="rgb(104,140,67)" stroke-width="1" opacity="0.996078431372549" d="M 112.5 181 L 124.5 181 Q 131.9 183.6 136 189.5 Q 146.4 203.6 146 228.5 L 141 244.5 L 133.5 253 L 124 259.5 L 125 264.5 L 124 264.5 L 123 258 Q 131.3 254.5 137 247.5 L 138.5 245 Q 141.1 245.8 140 242.5 L 144 233.5 L 145 219.5 L 142 204.5 L 140 201.5 L 140 197.5 L 131.5 186 Q 126.2 180.3 113.5 182 L 106 185 L 102 190.5 L 101.5 195 L 101 190.5 L 106.5 184 L 112.5 181 Z " /><path fill="rgb(104,140,67)" stroke="rgb(104,140,67)" stroke-width="1" opacity="0.996078431372549" d="M 428.5 188 L 429 190.5 L 428 190.5 L 428.5 188 Z " /><path fill="rgb(104,140,67)" stroke="rgb(104,140,67)" stroke-width="1" opacity="0.996078431372549" d="M 61.5 190 L 64 190.5 Q 55.2 191.7 51 197.5 L 46.5 205 L 46 203.5 L 54.5 193 L 61.5 190 Z " /><path fill="rgb(104,140,67)" stroke="rgb(104,140,67)" stroke-width="1" opacity="0.996078431372549" d="M 71.5 190 Q 78.1 190.9 81 195.5 L 85 206.5 L 87 220.5 L 91 230 L 94 230.5 L 91.5 231 L 89 228.5 L 86 220.5 L 85 211.5 L 81 197.5 L 77.5 194 L 71.5 191 L 71.5 190 Z " /><path fill="rgb(104,140,67)" stroke="rgb(104,140,67)" stroke-width="1" opacity="0.996078431372549" d="M 429.5 193 L 430 209.5 L 429 209.5 L 429.5 193 Z " /><path fill="rgb(104,140,67)" stroke="rgb(104,140,67)" stroke-width="1" opacity="0.996078431372549" d="M 101.5 198 L 102 204.5 L 105 214.5 L 105 227.5 L 100.5 231 L 100.5 230 L 103 228.5 L 104 226.5 L 104 214.5 L 101 204.5 L 101.5 198 Z " /><path fill="rgb(104,140,67)" stroke="rgb(104,140,67)" stroke-width="1" opacity="0.996078431372549" d="M 243.5 201 L 249.5 202 L 251 203.5 Q 250.2 206.1 253.5 205 Q 257.3 200.8 266.5 202 L 278.5 208 L 286.5 202 L 294.5 202 L 295.5 201 Q 297 203.5 302.5 202 L 311 206 L 312.5 209 L 317 212.5 L 323 225.5 L 325 233.5 L 325 259.5 L 318.5 269 Q 315.6 271.6 309.5 271 L 309.5 270 Q 317.8 270.3 321 265.5 L 324 258.5 L 324 233.5 L 321 223.5 L 316 213.5 L 308.5 206 L 302.5 203 L 286.5 203 L 280 207.5 Q 280.8 209.8 278.5 209 Q 277 211.5 275.5 208 L 273 206.5 Q 273.8 203.9 270.5 205 Q 267.2 201.8 259.5 203 L 251.5 206 L 250 203 L 237.5 203 L 232 208.5 L 230 213.5 L 230 242.5 L 234 261.5 L 240.5 271 L 249.5 272 L 255 269 L 256.5 264 L 257 266.5 L 253.5 271 Q 250.5 274 243.5 273 L 237 270 L 234 264.5 L 230 251.5 Q 231.5 246 229 244.5 L 229 212.5 L 235.5 203 L 243.5 201 Z " /><path fill="rgb(104,140,67)" stroke="rgb(104,140,67)" stroke-width="1" opacity="0.996078431372549" d="M 45.5 206 L 47 229.5 L 57 252 L 61 254.5 L 64.5 259 L 73.5 263 L 80.5 265 L 85.5 265 L 87 266.5 L 91 279.5 L 95 283.5 L 92.5 282 L 90 280.5 L 87 272.5 L 87 268.5 L 84.5 266 L 78.5 266 L 64.5 260 L 55 250.5 L 48 236.5 L 45 225.5 L 45.5 206 Z " /><path fill="rgb(104,140,67)" stroke="rgb(104,140,67)" stroke-width="1" opacity="0.996078431372549" d="M 202.5 206 L 212 206.5 L 202.5 207 L 197 210 L 195 217.5 L 199 231.5 L 199 243.5 L 198 246 L 192.5 249 L 187.5 249 Q 180.4 246.1 181 235.5 L 182 235.5 Q 181.8 243.8 186.5 247 L 192.5 248 L 198 243.5 L 198 233.5 L 194 214.5 L 198.5 208 L 202.5 206 Z " /><path fill="rgb(104,140,67)" stroke="rgb(104,140,67)" stroke-width="1" opacity="0.996078431372549" d="M 213.5 207 L 219 211.5 L 218.5 213 L 217 210 L 213.5 207 Z " /><path fill="rgb(104,140,67)" stroke="rgb(104,140,67)" stroke-width="1" opacity="0.996078431372549" d="M 447.5 207 Q 459.7 205.3 464 211.5 L 465 220.5 L 462.5 235 L 462 228.5 L 463 227.5 L 464 214.5 L 462 210 L 456.5 208 L 447.5 208 L 447.5 207 Z " /><path fill="rgb(104,140,67)" stroke="rgb(104,140,67)" stroke-width="1" opacity="0.996078431372549" d="M 444.5 208 L 446 208.5 L 441 212.5 L 438 217.5 L 436 226.5 L 436 244.5 L 439 255.5 L 445 266 L 454.5 273 L 467.5 276 L 475.5 276 Q 478.4 273.4 484.5 274 L 494 267.5 L 501.5 256 L 502 258.5 L 491.5 271 Q 482.8 277.8 466.5 277 L 452.5 273 L 442 263.5 L 437 253.5 L 435 245.5 L 435 224.5 Q 436.8 214.8 442.5 209 L 444.5 208 Z " /><path fill="rgb(104,140,67)" stroke="rgb(104,140,67)" stroke-width="1" opacity="0.996078431372549" d="M 164.5 209 Q 174.6 206.9 178 211.5 Q 181 215.5 180 223.5 L 179 223.5 Q 180.4 214.1 175.5 211 Q 172 208.5 164.5 210 L 157 216.5 L 156 219.5 L 156 240.5 L 158 249.5 L 164 261.5 L 172 271 L 186.5 276 L 195.5 276 Q 198.4 273.4 204.5 274 L 214 267.5 L 218.5 262 L 217 264.5 L 212.5 270 L 205.5 275 Q 199.4 274.4 196.5 277 L 186.5 277 L 175.5 274 L 164 263.5 L 158 252.5 L 155 241.5 L 155 218.5 L 159.5 212 L 164.5 209 Z " /><path fill="rgb(104,140,67)" stroke="rgb(104,140,67)" stroke-width="1" opacity="0.996078431372549" d="M 486.5 210 Q 500.7 208.8 505 217.5 Q 508.6 225.4 507 238.5 L 506 239.5 L 505 250.5 L 502.5 255 L 502 253.5 L 505 244.5 L 506 226.5 Q 503.7 225.3 505 220.5 L 499.5 213 L 493.5 211 L 488.5 211 L 482 214.5 L 480 218.5 L 480 242.5 L 474.5 249 L 469.5 250 L 463 245.5 L 462 238.5 L 463 238.5 L 463 243.5 L 465 247 Q 467.4 248.7 473.5 248 L 478 244.5 L 479 241.5 L 479 218.5 L 484.5 211 L 486.5 210 Z " /><path fill="rgb(104,140,67)" stroke="rgb(104,140,67)" stroke-width="1" opacity="0.996078431372549" d="M 528.5 212 L 533 212.5 L 525.5 214 L 525.5 213 L 528.5 212 Z " /><path fill="rgb(104,140,67)" stroke="rgb(104,140,67)" stroke-width="1" opacity="0.996078431372549" d="M 428.5 213 L 429 216.5 L 426 228.5 L 417.5 239 L 407.5 245 L 407.5 244 L 414 241 Q 412.9 238.3 415.5 239 L 420 235.5 L 427 222.5 L 428.5 213 Z " /><path fill="rgb(104,140,67)" stroke="rgb(104,140,67)" stroke-width="1" opacity="0.996078431372549" d="M 534.5 213 L 539 214 Q 537.9 216.7 540.5 216 L 542 219 L 552.5 218 Q 561.1 219.9 566 225.5 L 567.5 228 Q 572.6 223.1 583.5 224 L 595 229.5 L 593.5 229 Q 588.2 224.8 578.5 225 Q 577.2 227.3 572.5 226 Q 570.6 229.6 566 229 L 561.5 223 Q 556.8 219.2 548.5 219 Q 547.3 221.2 542.5 220 L 536.5 214 L 534.5 214 L 534.5 213 Z " /><path fill="rgb(104,140,67)" stroke="rgb(104,140,67)" stroke-width="1" opacity="0.996078431372549" d="M 219.5 214 L 222 218.5 L 222 225.5 L 224 233.5 L 224 246.5 L 222 257.5 L 219.5 261 L 220 259.5 L 223 245.5 L 223 234.5 L 221 227.5 L 221 219.5 L 219.5 214 Z " /><path fill="rgb(104,140,67)" stroke="rgb(104,140,67)" stroke-width="1" opacity="0.996078431372549" d="M 523.5 214 L 518 220.5 L 516.5 225 L 516 222.5 L 520.5 216 L 523.5 214 Z " /><path fill="rgb(104,140,67)" stroke="rgb(104,140,67)" stroke-width="1" opacity="0.996078431372549" d="M 180.5 225 L 181 233.5 L 180 233.5 L 180.5 225 Z " /><path fill="rgb(104,140,67)" stroke="rgb(104,140,67)" stroke-width="1" opacity="0.996078431372549" d="M 514.5 229 L 515 231.5 L 513.5 236 L 513 232.5 L 514.5 229 Z " /><path fill="rgb(104,140,67)" stroke="rgb(104,140,67)" stroke-width="1" opacity="0.996078431372549" d="M 596.5 230 L 602 234.5 L 608 247.5 L 609 266.5 L 604 285.5 L 595.5 295 L 586.5 296 L 579 291.5 Q 576 288.5 577 281.5 L 578 281.5 Q 576.6 291.9 583.5 294 L 591.5 295 L 601 289 L 607 272.5 L 608 254.5 L 604 239.5 L 596.5 230 Z " /><path fill="rgb(104,140,67)" stroke="rgb(104,140,67)" stroke-width="1" opacity="0.996078431372549" d="M 336.5 232 L 348.5 242 L 359 246.5 L 359 257.5 L 363.5 266 L 367 268.5 L 365.5 268 L 361 264.5 L 358 257.5 L 358 246 L 349.5 244 Q 346 239 340 238 L 336.5 232 Z " /><path fill="rgb(104,140,67)" stroke="rgb(104,140,67)" stroke-width="1" opacity="0.996078431372549" d="M 259.5 237 L 265 239.5 L 266 248.5 L 265 248.5 Q 265.9 241.7 264 239 L 260.5 238 L 258 239 L 257 241.5 L 256.5 254 L 256 241.5 L 259.5 237 Z " /><path fill="rgb(104,140,67)" stroke="rgb(104,140,67)" stroke-width="1" opacity="0.996078431372549" d="M 293.5 237 Q 298.9 235.1 298 238.5 L 301 245.5 L 301 257.5 L 304 268 L 308 269.5 L 306.5 270 L 303 267.5 L 300 258.5 L 299 241.5 L 296.5 238 Q 291.8 237.3 291 240.5 L 290 247.5 L 291 248.5 L 291 262.5 L 290 266.5 L 286.5 270 L 282.5 271 L 282.5 270 Q 287.3 269.8 289 266.5 L 290 250.5 Q 287.7 249.3 289 244.5 L 291.5 238 L 293.5 237 Z " /><path fill="rgb(104,140,67)" stroke="rgb(104,140,67)" stroke-width="1" opacity="0.996078431372549" d="M 512.5 237 L 513 241.5 L 511 250.5 L 511 271.5 Q 511.9 278.1 516.5 281 Q 519.8 283.7 526.5 283 L 531 279.5 L 535 266.5 L 535 261.5 L 537 254.5 L 539.5 252 Q 544.8 250.8 546 253.5 L 545 280.5 L 547 286 L 550.5 288 L 557.5 289 L 562.5 288 L 566 284.5 L 569 267.5 L 570.5 265 L 571 267.5 L 568 276.5 L 567 284.5 L 562.5 289 L 554.5 290 L 548.5 288 L 546 285.5 Q 542.7 280.8 544 271.5 L 545 270.5 L 545 254.5 Q 544 252 539.5 253 L 538 254.5 L 534 274.5 L 531 282 Q 528.4 284.7 521.5 284 L 514 281 L 510 271.5 L 510 249.5 L 512.5 237 Z " /><path fill="rgb(104,140,67)" stroke="rgb(104,140,67)" stroke-width="1" opacity="0.996078431372549" d="M 399.5 246 L 402 246.5 L 398 248.5 Q 399.8 261.6 395 267 L 387.5 271 L 387.5 270 L 395 264.5 Q 399 259.5 397 248.5 L 399.5 246 Z " /><path fill="rgb(104,140,67)" stroke="rgb(104,140,67)" stroke-width="1" opacity="0.996078431372549" d="M 266.5 250 L 269 264.5 L 274.5 270 L 277 270.5 L 274.5 271 L 269 266.5 Q 264.5 260.4 266.5 250 Z " /><path fill="rgb(104,140,67)" stroke="rgb(104,140,67)" stroke-width="1" opacity="0.996078431372549" d="M 257.5 258 L 258 261.5 L 257 261.5 L 257.5 258 Z " /><path fill="rgb(104,140,67)" stroke="rgb(104,140,67)" stroke-width="1" opacity="0.996078431372549" d="M 573.5 259 Q 578.9 258.4 581 260 L 581 268.5 L 578.5 279 L 578 274.5 Q 580.9 269.9 580 261.5 Q 579 259 574.5 260 L 571.5 264 L 571 262.5 L 573.5 259 Z " /><path fill="rgb(104,140,67)" stroke="rgb(104,140,67)" stroke-width="1" opacity="0.996078431372549" d="M 125.5 266 L 126 274.5 Q 124.4 281.4 118.5 284 L 115.5 285 L 115.5 284 L 122 279.5 Q 126.5 275.5 125.5 266 Z " /><path fill="rgb(104,140,67)" stroke="rgb(104,140,67)" stroke-width="1" opacity="0.996078431372549" d="M 368.5 269 L 371 270.5 L 369.5 271 L 368.5 269 Z " /><path fill="rgb(104,140,67)" stroke="rgb(104,140,67)" stroke-width="1" opacity="0.996078431372549" d="M 372.5 271 L 382 272.5 L 376.5 273 L 372.5 272 L 372.5 271 Z " /><path fill="rgb(104,140,67)" stroke="rgb(104,140,67)" stroke-width="1" opacity="0.996078431372549" d="M 383.5 271 L 386 271.5 L 383.5 272 L 383.5 271 Z " /><path fill="rgb(104,140,67)" stroke="rgb(104,140,67)" stroke-width="1" opacity="0.996078431372549" d="M 96.5 284 L 99 285.5 L 97.5 286 L 96.5 284 Z " /><path fill="rgb(104,140,67)" stroke="rgb(104,140,67)" stroke-width="1" opacity="0.996078431372549" d="M 100.5 286 L 103 286.5 L 100.5 287 L 100.5 286 Z " /><path fill="rgb(104,140,67)" stroke="rgb(104,140,67)" stroke-width="1" opacity="0.996078431372549" d="M 108.5 286 L 111 286.5 L 108.5 287 L 108.5 286 Z " /><path fill="rgb(142,190,83)" stroke="rgb(142,190,83)" stroke-width="1" opacity="1" d="M 380.5 22 Q 385.6 21.4 387 24.5 L 388 27.5 L 385.5 34 L 385 31.5 L 386 28.5 Q 386.7 25.9 384 27 Q 385.1 29.7 382.5 29 L 384 26.5 L 382.5 24 Q 378.5 23.5 378 26.5 L 379 30.5 L 377.5 30 L 376 29.5 L 377 25.5 L 380.5 22 Z " /><path fill="rgb(142,190,83)" stroke="rgb(142,190,83)" stroke-width="1" opacity="1" d="M 369.5 24 L 374 27.5 L 372 28.5 Q 372.8 26.3 370.5 27 L 368.5 26 L 365 30.5 L 368 38.5 L 366 37.5 L 363 33.5 L 363 29.5 L 365 26 L 369.5 24 Z " /><path fill="rgb(142,190,83)" stroke="rgb(142,190,83)" stroke-width="1" opacity="1" d="M 392.5 32 L 397 34 L 396 42 L 392 43 L 391.5 45 L 390 43.5 L 395 38.5 Q 395.8 34.8 393.5 34 L 388.5 35 L 389.5 33 L 392.5 32 Z " /><path fill="rgb(142,190,83)" stroke="rgb(142,190,83)" stroke-width="1" opacity="1" d="M 247.5 35 L 253 37.5 L 256 43.5 L 254 44.5 Q 253.6 39 249.5 37 L 246 38.5 L 245.5 44 L 244 38.5 L 245 36 L 247.5 35 Z " /><path fill="rgb(142,190,83)" stroke="rgb(142,190,83)" stroke-width="1" opacity="1" d="M 260.5 36 Q 265 35 266 37.5 L 268 44.5 L 265.5 49 L 264 48.5 Q 267.8 46.8 266 39.5 Q 264.6 36.8 260 38 Q 260.8 41.8 257.5 43 L 257 41.5 L 260.5 36 Z " /><path fill="rgb(142,190,83)" stroke="rgb(142,190,83)" stroke-width="1" opacity="1" d="M 380.5 36 L 382 36.5 L 379.5 38 L 380.5 36 Z " /><path fill="rgb(142,190,83)" stroke="rgb(142,190,83)" stroke-width="1" opacity="1" d="M 385.5 38 L 386.5 40 L 384.5 41 L 385 39.5 L 385.5 38 Z " /><path fill="rgb(142,190,83)" stroke="rgb(142,190,83)" stroke-width="1" opacity="1" d="M 355.5 40 Q 363.8 38.7 368 41.5 L 367.5 43 L 386.5 47 L 398.5 47 L 407.5 51 L 413 56.5 L 414 60.5 L 420 68.5 L 422 77.5 L 422 90.5 Q 419 93.5 420 100.5 L 417 106.5 L 407.5 118 Q 405.3 117.3 406 119.5 Q 398.6 124.1 387.5 125 L 386.5 124 L 374.5 124 L 361.5 121 L 354.5 121 L 336.5 113 L 333 109.5 L 328 103.5 L 324 91.5 L 324 72.5 L 329 58.5 L 336.5 50 Q 343 42 355.5 40 Z M 358 43 L 351 45 L 343 50 L 335 60 L 332 66 Q 333 72 330 75 L 331 86 L 336 82 L 337 83 L 336 83 Q 331 85 331 92 L 338 96 L 338 97 L 332 95 L 336 103 Q 342 110 352 113 L 375 118 L 391 118 L 403 113 L 407 108 L 408 106 L 406 107 L 397 106 L 397 105 L 399 106 Q 406 107 409 104 L 411 101 L 409 96 Q 407 91 400 92 L 400 91 L 405 91 L 411 97 Q 410 99 413 98 L 415 88 L 415 75 Q 412 72 413 66 L 408 58 L 400 50 L 391 48 L 382 48 L 368 44 L 358 43 Z M 334 54 L 333 59 L 336 57 Q 337 53 334 54 Z M 332 59 L 328 64 L 328 67 L 328 69 L 325 80 Q 328 81 326 88 L 326 90 L 327 97 L 335 110 L 338 112 L 349 117 L 360 120 L 368 120 L 371 122 Q 376 121 378 123 Q 392 125 399 120 L 396 118 L 388 120 L 376 120 Q 374 118 369 119 L 366 117 L 353 116 L 343 111 Q 339 112 340 109 L 334 103 L 329 93 L 330 91 L 327 83 L 328 82 L 328 74 L 330 71 L 330 66 L 332 63 L 332 59 Z M 415 65 L 417 71 L 417 70 L 417 68 Q 418 64 415 65 Z M 419 75 L 417 77 L 418 81 Q 419 86 416 89 Q 415 93 417 95 L 416 98 Q 417 100 415 99 L 413 103 L 412 106 L 415 106 L 418 102 Q 416 93 420 91 L 419 88 L 420 86 L 419 82 L 420 80 L 419 75 Z M 411 107 L 406 114 Q 401 114 399 118 Q 398 120 405 119 L 407 116 L 410 114 L 412 111 L 411 107 Z " /><path fill="rgb(142,190,83)" stroke="rgb(142,190,83)" stroke-width="1" opacity="1" d="M 239.5 46 L 244 47.5 L 240 48 L 238 52.5 L 239 55 L 243.5 57 L 245 56.5 Q 245.7 59.1 243 58 L 243 60 L 261.5 56 L 272 51.5 L 271.5 50 L 280.5 49 L 289.5 51 L 302 59.5 L 309 67.5 L 314 79.5 L 314 91.5 L 316 97.5 L 316 103.5 Q 313.2 115.7 303.5 121 L 286.5 129 L 280.5 129 L 261.5 135 L 250.5 135 L 243.5 133 L 234 128 Q 235.1 125.3 232.5 126 L 223 113.5 L 219 102.5 L 218 89.5 L 223 73.5 L 231.5 64 L 242 58.5 Q 242.8 56.3 240.5 57 L 237 54.5 L 236 49.5 L 237 47 L 239.5 46 Z M 277 52 L 268 54 L 266 56 L 253 60 L 244 61 L 236 65 Q 228 71 225 81 L 225 99 L 232 114 Q 233 108 238 105 L 240 106 L 237 107 Q 232 109 233 117 L 229 114 Q 230 111 227 112 L 227 108 L 223 98 L 223 85 L 221 84 L 220 95 Q 223 96 221 98 L 224 112 L 229 120 Q 231 124 233 121 L 232 123 L 234 123 L 235 127 L 253 134 Q 261 135 266 132 L 268 132 L 275 130 L 277 128 L 288 127 L 297 123 L 299 119 L 294 120 L 285 125 L 274 127 L 271 129 L 263 129 L 259 131 L 254 131 L 248 128 L 245 128 L 239 125 Q 240 122 237 123 L 234 120 L 234 118 L 238 120 L 244 120 L 250 117 L 251 114 L 252 114 L 251 117 Q 247 122 238 122 L 247 127 L 251 128 L 266 128 L 271 127 L 284 122 L 288 122 L 303 113 L 309 103 L 309 99 L 304 102 Q 293 104 290 99 Q 289 92 292 91 L 290 88 L 291 88 Q 290 90 293 89 Q 290 92 291 99 L 296 101 L 303 101 L 310 96 L 312 96 Q 314 95 313 91 L 310 92 L 309 91 L 307 89 L 306 87 L 309 88 L 309 83 L 306 75 L 302 67 L 296 60 L 287 54 L 277 52 Z M 301 61 Q 299 64 302 63 L 301 61 Z M 304 65 L 309 78 L 309 80 Q 312 79 311 82 L 312 82 Q 311 72 305 67 Q 306 64 304 65 Z M 311 83 L 312 85 Q 313 82 311 83 Z M 313 96 L 309 109 Q 306 110 308 112 Q 304 111 305 114 L 302 115 L 300 119 L 305 118 Q 309 116 306 115 L 308 115 L 314 105 Q 315 98 313 96 Z " /><path fill="rgb(142,190,83)" stroke="rgb(142,190,83)" stroke-width="1" opacity="1" d="M 249 46 Q 252 44.8 251 48.5 L 249 47.5 L 249 46 Z " /><path fill="rgb(142,190,83)" stroke="rgb(142,190,83)" stroke-width="1" opacity="1" d="M 258.5 50 L 259.5 52 Q 256.7 52.7 258.5 50 Z " /><path fill="rgb(142,190,83)" stroke="rgb(142,190,83)" stroke-width="1" opacity="1" d="M 349.5 52 L 347.5 55 L 349.5 52 Z " /><path fill="rgb(142,190,83)" stroke="rgb(142,190,83)" stroke-width="1" opacity="1" d="M 395.5 56 L 398 56.5 L 395.5 57 L 395.5 56 Z " /><path fill="rgb(142,190,83)" stroke="rgb(142,190,83)" stroke-width="1" opacity="1" d="M 393.5 57 L 393 58.5 L 392.5 60 L 392 58.5 L 393.5 57 Z " /><path fill="rgb(142,190,83)" stroke="rgb(142,190,83)" stroke-width="1" opacity="1" d="M 399.5 57 L 402.5 61 L 399.5 57 Z " /><path fill="rgb(142,190,83)" stroke="rgb(142,190,83)" stroke-width="1" opacity="1" d="M 278.5 59 L 277 61.5 Q 275.9 64.8 278.5 64 L 278.5 65 L 276 63.5 Q 275.5 59.5 278.5 59 Z " /><path fill="rgb(142,190,83)" stroke="rgb(142,190,83)" stroke-width="1" opacity="1" d="M 284.5 59 L 288 61.5 L 285.5 60 L 284.5 59 Z " /><path fill="rgb(142,190,83)" stroke="rgb(142,190,83)" stroke-width="1" opacity="1" d="M 394.5 61 Q 398.3 60.3 399 62.5 L 397.5 62 Q 393.5 62.8 394.5 61 Z " /><path fill="rgb(142,190,83)" stroke="rgb(142,190,83)" stroke-width="1" opacity="1" d="M 349.5 69 L 354 69.5 L 349.5 70 L 349.5 69 Z " /><path fill="rgb(142,190,83)" stroke="rgb(142,190,83)" stroke-width="1" opacity="1" d="M 390.5 75 L 395 75.5 Q 388.8 75.3 386.5 79 L 388.5 76 L 390.5 75 Z " /><path fill="rgb(142,190,83)" stroke="rgb(142,190,83)" stroke-width="1" opacity="1" d="M 234.5 76 L 236 79.5 L 234 78.5 L 234.5 76 Z " /><path fill="rgb(142,190,83)" stroke="rgb(142,190,83)" stroke-width="1" opacity="1" d="M 238.5 76 L 237.5 78 L 238.5 76 Z " /><path fill="rgb(142,190,83)" stroke="rgb(142,190,83)" stroke-width="1" opacity="1" d="M 284.5 76 L 288 76.5 L 284.5 77 L 284.5 76 Z " /><path fill="rgb(142,190,83)" stroke="rgb(142,190,83)" stroke-width="1" opacity="1" d="M 343.5 76 L 344 79.5 L 343 79.5 L 343.5 76 Z " /><path fill="rgb(142,190,83)" stroke="rgb(142,190,83)" stroke-width="1" opacity="1" d="M 280.5 79 L 280 80.5 L 279.5 82 L 279 80.5 L 280.5 79 Z " /><path fill="rgb(142,190,83)" stroke="rgb(142,190,83)" stroke-width="1" opacity="1" d="M 286.5 83 L 289 84.5 L 287.5 84 L 286.5 83 Z " /><path fill="rgb(142,190,83)" stroke="rgb(142,190,83)" stroke-width="1" opacity="1" d="M 351.5 85 L 354 85.5 L 351.5 86 L 351.5 85 Z " /><path fill="rgb(142,190,83)" stroke="rgb(142,190,83)" stroke-width="1" opacity="1" d="M 298.5 86 L 304 86.5 L 296.5 88 L 296.5 87 L 298.5 86 Z " /><path fill="rgb(142,190,83)" stroke="rgb(142,190,83)" stroke-width="1" opacity="1" d="M 349.5 86 L 351 89.5 L 350 89.5 L 349.5 86 Z " /><path fill="rgb(142,190,83)" stroke="rgb(142,190,83)" stroke-width="1" opacity="1" d="M 359.5 86 L 361 86.5 L 357.5 89 L 359.5 86 Z " /><path fill="rgb(142,190,83)" stroke="rgb(142,190,83)" stroke-width="1" opacity="1" d="M 362.5 88 L 363 91.5 L 362 91.5 L 362.5 88 Z " /><path fill="rgb(142,190,83)" stroke="rgb(142,190,83)" stroke-width="1" opacity="1" d="M 243.5 89 L 240.5 93 L 243.5 89 Z " /><path fill="rgb(142,190,83)" stroke="rgb(142,190,83)" stroke-width="1" opacity="1" d="M 388.5 89 L 389.5 91 L 388.5 89 Z " /><path fill="rgb(142,190,83)" stroke="rgb(142,190,83)" stroke-width="1" opacity="1" d="M 379.5 90 L 378.5 92 L 379.5 90 Z " /><path fill="rgb(142,190,83)" stroke="rgb(142,190,83)" stroke-width="1" opacity="1" d="M 382.5 90 L 383.5 92 L 382.5 90 Z " /><path fill="rgb(142,190,83)" stroke="rgb(142,190,83)" stroke-width="1" opacity="1" d="M 281.5 91 L 285 92.5 L 282.5 93 L 281.5 91 Z " /><path fill="rgb(142,190,83)" stroke="rgb(142,190,83)" stroke-width="1" opacity="1" d="M 350.5 91 L 351 92.5 L 350 95 L 344.5 98 L 339.5 98 L 339.5 97 Q 348.1 98.1 350 92.5 L 350.5 91 Z " /><path fill="rgb(142,190,83)" stroke="rgb(142,190,83)" stroke-width="1" opacity="1" d="M 391.5 91 L 394 92.5 L 391.5 97 L 391 94.5 L 392 92.5 L 391.5 91 Z " /><path fill="rgb(142,190,83)" stroke="rgb(142,190,83)" stroke-width="1" opacity="1" d="M 239.5 95 L 240 98.5 L 239 98.5 L 239.5 95 Z " /><path fill="rgb(142,190,83)" stroke="rgb(142,190,83)" stroke-width="1" opacity="1" d="M 376.5 95 L 374.5 98 L 373 97.5 L 376.5 95 Z " /><path fill="rgb(142,190,83)" stroke="rgb(142,190,83)" stroke-width="1" opacity="1" d="M 281.5 96 L 282.5 98 L 281.5 96 Z " /><path fill="rgb(142,190,83)" stroke="rgb(142,190,83)" stroke-width="1" opacity="1" d="M 245.5 97 L 246 100.5 L 245 100.5 L 245.5 97 Z " /><path fill="rgb(142,190,83)" stroke="rgb(142,190,83)" stroke-width="1" opacity="1" d="M 255.5 97 L 256 99.5 L 255 99.5 L 255.5 97 Z " /><path fill="rgb(142,190,83)" stroke="rgb(142,190,83)" stroke-width="1" opacity="1" d="M 360.5 99 L 361.5 101 L 360.5 99 Z " /><path fill="rgb(142,190,83)" stroke="rgb(142,190,83)" stroke-width="1" opacity="1" d="M 391.5 100 L 395 104.5 L 391 101.5 L 391.5 100 Z " /><path fill="rgb(142,190,83)" stroke="rgb(142,190,83)" stroke-width="1" opacity="1" d="M 240.5 101 L 241.5 103 L 240.5 101 Z " /><path fill="rgb(142,190,83)" stroke="rgb(142,190,83)" stroke-width="1" opacity="1" d="M 368.5 103 L 374 103.5 L 368.5 104 L 368.5 103 Z " /><path fill="rgb(142,190,83)" stroke="rgb(142,190,83)" stroke-width="1" opacity="1" d="M 282.5 104 L 280.5 107 L 282.5 104 Z " /><path fill="rgb(142,190,83)" stroke="rgb(142,190,83)" stroke-width="1" opacity="1" d="M 248.5 105 L 251 106 L 253 111.5 L 252 111.5 L 248.5 105 Z " /><path fill="rgb(142,190,83)" stroke="rgb(142,190,83)" stroke-width="1" opacity="1" d="M 276.5 107 L 279 107.5 L 276.5 108 L 276.5 107 Z " /><path fill="rgb(142,190,83)" stroke="rgb(142,190,83)" stroke-width="1" opacity="1" d="M 347.5 167 L 359.5 168 L 368 175.5 Q 366.8 180.3 369 181.5 L 369 208.5 L 372.5 214 Q 375.1 217.4 382.5 216 Q 388.2 212.2 388.5 203 L 389 210.5 L 389 212.5 Q 389.8 214.8 387.5 214 L 382.5 218 L 376.5 218 L 370 213.5 L 367 207.5 L 367 179.5 L 363 175.5 Q 363.8 171.8 361.5 171 Q 356.5 168 347.5 169 L 339 173 Q 340.1 175.7 337.5 175 L 334 177.5 L 335 181.5 Q 333 179.8 331 183.5 L 332 191.5 Q 328.4 196.9 330 207.5 L 331 209.5 L 331 211.5 L 331 217.5 L 337 231 Q 339.7 229.9 339 232.5 L 346 237.5 Q 345.3 239.8 347.5 239 L 351.5 242 Q 357.5 240.5 359 243.5 L 361 246.5 L 361 257.5 L 365.5 265 L 371.5 269 L 373.5 269 Q 376.7 271.3 383.5 270 Q 384.5 267 389.5 268 L 392 265.5 L 391.5 264 L 393 263.5 L 390 261.5 Q 388.7 257.3 393.5 259 L 393.5 261 Q 396.1 261.8 395 258.5 Q 397.3 257.3 396 252.5 L 395 249.5 L 397 248.5 Q 399.6 264.6 390.5 269 L 382.5 272 L 376.5 272 Q 367 270.4 362 264.5 L 359 257.5 L 359 246.5 L 357.5 245 Q 343.1 241.9 336 231.5 L 330 219.5 L 328 211.5 L 328 190.5 Q 329.8 179.3 336.5 173 Q 340.3 168.3 347.5 167 Z " /><path fill="rgb(142,190,83)" stroke="rgb(142,190,83)" stroke-width="1" opacity="1" d="M 399.5 170 L 411.5 170 L 418.5 173 L 424 178.5 L 427 183.5 L 429 191.5 L 429 212.5 L 425 227.5 L 417.5 238 L 414 239.5 Q 414.8 241.8 412.5 241 Q 407.3 246.3 397.5 247 L 398 245.5 L 398.5 243 L 402.5 244 L 411.5 239 L 414 239 L 416.5 234 L 417.5 235 L 421 231.5 Q 421.4 226.4 425 224.5 L 428 201.5 L 427 200.5 L 426 185.5 L 417.5 174 L 414.5 174 L 408.5 171 L 404.5 171 L 396.5 173 L 392 177.5 L 392 180.5 L 389.5 185 L 389 181.5 L 391 175.5 L 393.5 173 L 399.5 170 Z " /><path fill="rgb(142,190,83)" stroke="rgb(142,190,83)" stroke-width="1" opacity="1" d="M 114.5 182 L 123.5 182 L 134 188.5 L 140 197.5 L 140 201.5 L 144 212.5 L 145 226.5 Q 142.5 228 144 233.5 L 140 245 L 137 246.5 L 131.5 253 L 128.5 255 L 127 252.5 Q 127.8 250.3 131.5 251 L 138 244.5 L 137 240.5 L 143 231.5 L 143 215.5 L 139 209.5 Q 142.5 208 140 206.5 L 138 196.5 L 128.5 186 L 125.5 186 L 121.5 183 L 116.5 183 Q 114.9 186.9 108.5 186 L 105 189.5 L 103 196.5 Q 106.3 202.3 105 212.5 L 107 215.5 L 107 217.5 Q 108.3 222.3 106 223.5 L 107 227.5 L 102.5 233 Q 96.3 231.2 94.5 234 L 88 229.5 L 85 219.5 L 83 217.5 L 83 209.5 L 84 209.5 L 87 223.5 L 91.5 231 Q 96.3 229.7 97.5 232 L 101.5 231 L 105 227.5 L 105 214.5 L 102 204.5 L 101 195.5 L 102 190.5 L 106 185 L 114.5 182 Z " /><path fill="rgb(142,190,83)" stroke="rgb(142,190,83)" stroke-width="1" opacity="1" d="M 416.5 184 L 418 187 Q 414.5 188.1 416.5 184 Z " /><path fill="rgb(142,190,83)" stroke="rgb(142,190,83)" stroke-width="1" opacity="1" d="M 389.5 186 L 390 197.5 L 389 199.5 L 389.5 201 Q 386.5 201.5 388 194.5 L 388 192.5 L 389.5 186 Z " /><path fill="rgb(142,190,83)" stroke="rgb(142,190,83)" stroke-width="1" opacity="1" d="M 64.5 190 L 73.5 191 L 81 197.5 L 80.5 200 L 71.5 192 L 62.5 192 Q 54.8 195.3 50 201.5 L 48 206.5 L 48 225.5 Q 52.1 240.8 59 252 L 63 253 L 65.5 258 L 70 258 Q 68.9 260.7 71.5 260 L 81 263.5 L 76.5 264 L 64.5 259 L 61 255.5 L 58.5 252 Q 56.3 252.8 57 250.5 Q 49.3 240.3 46 225.5 L 46 205.5 L 54.5 194 L 64.5 190 Z " /><path fill="rgb(142,190,83)" stroke="rgb(142,190,83)" stroke-width="1" opacity="1" d="M 392 193 Q 395 191.8 394 195.5 L 392.5 201 L 392 193 Z " /><path fill="rgb(142,190,83)" stroke="rgb(142,190,83)" stroke-width="1" opacity="1" d="M 81.5 203 Q 84.5 202.1 83 206.5 L 83.5 208 Q 80.5 208.9 82 204.5 L 81.5 203 Z " /><path fill="rgb(142,190,83)" stroke="rgb(142,190,83)" stroke-width="1" opacity="1" d="M 237.5 203 L 243 203.5 L 236 206 Q 237.5 209.8 234.5 209 L 231 217.5 L 231 238.5 L 233 240.5 L 233 251.5 L 235 254.5 L 237 263.5 L 235 264 L 231 250.5 Q 232.8 244.2 230 242.5 L 230 213.5 Q 231.8 206.3 237.5 203 Z " /><path fill="rgb(142,190,83)" stroke="rgb(142,190,83)" stroke-width="1" opacity="1" d="M 245.5 203 Q 250.9 201.1 250 204.5 L 253.5 206 Q 257.3 201.8 266.5 203 L 273 205 L 275 208.5 L 273 209 Q 274.1 206.3 271.5 207 Q 267.8 203.7 259.5 205 Q 256.8 207.8 250.5 207 Q 245.9 205.8 245.5 203 Z " /><path fill="rgb(142,190,83)" stroke="rgb(142,190,83)" stroke-width="1" opacity="1" d="M 286.5 203 L 302.5 203 Q 311.3 206.3 316 213.5 L 321 223.5 L 324 233.5 L 324 258.5 L 319.5 267 Q 316.3 270.8 308.5 270 L 304 268 L 303 261.5 L 304 261.5 Q 303.3 265.3 305.5 266 Q 307.8 269.2 314.5 268 Q 316.7 263.8 319 265.5 L 323 255.5 L 323 237.5 L 321 233.5 L 321 228.5 L 319 221.5 L 311.5 211 Q 309.3 211.8 310 209.5 L 302.5 205 L 289.5 204 L 285.5 205 L 281 209.5 L 280.5 211 L 278 210.5 L 282.5 205 L 286.5 203 Z " /><path fill="rgb(142,190,83)" stroke="rgb(142,190,83)" stroke-width="1" opacity="1" d="M 202.5 207 L 212.5 207 L 217 210 L 221 219.5 L 221 227.5 L 223 234.5 L 223 245.5 L 222 246.5 L 221 257.5 L 212.5 269 L 204.5 274 Q 198.4 273.4 195.5 276 L 186.5 276 L 172 271 L 164 261.5 L 158 249.5 L 156 240.5 L 156 222.5 L 157 222.5 L 158 244.5 Q 163.7 251.3 166 261.5 L 174.5 270 L 185.5 274 L 197.5 274 L 203.5 271 L 208 271 Q 207 267.2 209.5 266 L 211.5 267 L 218 259.5 L 221 245.5 L 221 232.5 L 220 231.5 L 219 216.5 L 214.5 211 Q 211.9 211.7 213 209 L 210.5 209 L 208.5 208 Q 207 210.5 201.5 209 L 200 210.5 L 197 214.5 L 197 218.5 L 199 222.5 L 199 229.5 L 201 232.5 L 202 241.5 L 199 249 L 194.5 250 L 194 248.5 L 198 246 L 199 243.5 L 199 230.5 L 197 226.5 L 195 215.5 L 197 210 L 202.5 207 Z " /><path fill="rgb(142,190,83)" stroke="rgb(142,190,83)" stroke-width="1" opacity="1" d="M 446.5 208 L 456.5 208 L 462 210 Q 464.7 213 464 219 Q 460.2 220.5 461 217.5 L 461 215.5 Q 461.8 211.8 459.5 211 L 453.5 210 L 451.5 211 L 448.5 209 L 440 216.5 L 438 225.5 L 438 239.5 Q 442 241.5 438 243.5 L 438 248.5 Q 440.6 249.9 440 254.5 L 448.5 266 L 452 267 Q 450.9 269.7 453.5 269 L 463.5 274 L 465.5 273 Q 467.2 275.8 473.5 274 L 476.5 273 L 478.5 272 L 481.5 273 L 488 271 Q 486.9 268.3 489.5 269 L 493.5 264 L 497 263 L 500 251.5 L 502 249.5 Q 499.5 248 503 246.5 L 504.5 243 L 505 244.5 L 501 258.5 L 491.5 270 L 484.5 274 Q 478.4 273.4 475.5 276 L 467.5 276 L 454.5 273 L 445 266 L 437 249.5 L 436 244.5 L 436 226.5 L 438 217.5 L 443.5 210 L 446.5 208 Z " /><path fill="rgb(142,190,83)" stroke="rgb(142,190,83)" stroke-width="1" opacity="1" d="M 164.5 210 Q 175 208 178 213.5 L 181 240.5 Q 182.4 246.6 187.5 249 L 192 249.5 L 187.5 251 L 181 245.5 L 178 233.5 L 178 219.5 L 177 218.5 Q 179.5 217 176 215.5 L 175 212 L 167.5 211 L 163 213.5 L 165 214.5 Q 159.4 214.4 158 218.5 L 157.5 221 Q 154.8 219.8 157 218.5 L 157 216.5 L 161.5 212 L 164.5 210 Z " /><path fill="rgb(142,190,83)" stroke="rgb(142,190,83)" stroke-width="1" opacity="1" d="M 488.5 211 L 497.5 212 L 501 214.5 L 505 220.5 L 506 237.5 L 504.5 242 L 503 236.5 Q 505.2 235.2 504 230.5 L 503 229.5 L 503 220.5 L 497.5 214 L 494 215 Q 495.1 212.3 492.5 213 L 488.5 212 L 486 213 Q 481 220.1 483 235.5 L 484 237.5 L 481 240.5 Q 481.9 247.4 477.5 249 Q 474.8 251.8 468.5 251 Q 462.8 249.8 460 245.5 L 459 240.5 L 460 239.5 L 460 230.5 L 462 225.5 L 459 224 Q 457.9 221.3 460.5 222 L 463 221 L 463 227.5 L 462 228.5 L 462 243.5 L 466.5 249 L 471.5 250 L 479 244.5 L 480 242.5 L 480 218.5 L 483.5 213 L 488.5 211 Z " /><path fill="rgb(142,190,83)" stroke="rgb(142,190,83)" stroke-width="1" opacity="1" d="M 528 213 Q 537.8 211.9 541 218.5 L 542 220.5 L 540 221 L 537.5 217 Q 534.7 213.6 528 215 L 528 213 Z " /><path fill="rgb(142,190,83)" stroke="rgb(142,190,83)" stroke-width="1" opacity="1" d="M 524.5 214 L 527 214.5 L 520.5 219 L 524.5 214 Z " /><path fill="rgb(142,190,83)" stroke="rgb(142,190,83)" stroke-width="1" opacity="1" d="M 308.5 217 L 310 219.5 L 308 220.5 L 308.5 217 Z " /><path fill="rgb(142,190,83)" stroke="rgb(142,190,83)" stroke-width="1" opacity="1" d="M 525.5 218 L 527.5 221 L 523.5 223 L 524 221.5 L 525.5 218 Z " /><path fill="rgb(142,190,83)" stroke="rgb(142,190,83)" stroke-width="1" opacity="1" d="M 548.5 219 Q 561.1 219.4 566 227.5 Q 566.8 229.8 564.5 229 Q 560 220 545.5 221 L 544 221.5 Q 543.1 218.5 547.5 220 L 548.5 219 Z " /><path fill="rgb(142,190,83)" stroke="rgb(142,190,83)" stroke-width="1" opacity="1" d="M 395.5 221 Q 398.5 222.5 395.5 224 L 395.5 221 Z " /><path fill="rgb(142,190,83)" stroke="rgb(142,190,83)" stroke-width="1" opacity="1" d="M 518.5 221 L 519 228.5 L 515 235.5 Q 516.6 243.6 513 246.5 L 513 271.5 Q 514.4 277.6 519.5 280 L 526 281 Q 524.5 277.3 527.5 278 Q 528.7 280.3 530 277.5 L 535 256.5 L 535 254.5 L 537.5 251 L 545.5 250 L 549 253.5 L 549 267.5 Q 545.2 270.7 547 279.5 L 550 285 Q 553.3 288.5 562 287 L 562 284.5 L 566 279.5 L 566 273.5 L 569 261.5 L 572.5 258 L 575.5 256 L 583 260.5 L 584 263.5 L 582 268.5 L 580 285.5 L 581 289.5 L 583.5 292 L 591.5 294 L 598 288.5 Q 597.3 286.3 599.5 287 L 601 285.5 L 602 278.5 L 605 271.5 L 605 269.5 Q 607.5 262 606 250.5 L 602 243.5 L 602 241.5 L 602 239.5 L 598 234.5 L 599.5 234 L 604 239.5 L 607 247.5 L 608 265.5 Q 605.5 267 607 272.5 L 601 289 L 594.5 294 L 586.5 295 L 579 289.5 Q 576.7 286.3 578 279.5 L 581 268.5 L 581 260 Q 578.9 258.4 573.5 259 L 569 267.5 L 566 284.5 L 562.5 288 L 550.5 288 L 547 286 Q 543.9 281.4 545 271.5 L 546 270.5 L 546 253.5 Q 544.8 250.8 539.5 252 L 537 254.5 L 535 261.5 L 535 266.5 L 531 279.5 L 528.5 282 L 521.5 283 Q 515.8 281.8 513 277.5 L 511 271.5 L 511 252.5 L 512 251.5 L 513 236.5 L 517 222.5 L 518.5 221 Z " /><path fill="rgb(142,190,83)" stroke="rgb(142,190,83)" stroke-width="1" opacity="1" d="M 232 222 L 234 222.5 L 232 223.5 L 232 222 Z " /><path fill="rgb(142,190,83)" stroke="rgb(142,190,83)" stroke-width="1" opacity="1" d="M 578.5 225 L 587.5 226 L 598 232.5 L 596.5 232 L 583.5 227 L 577.5 227 L 574.5 228 L 569.5 229 L 570.5 227 L 578.5 225 Z " /><path fill="rgb(142,190,83)" stroke="rgb(142,190,83)" stroke-width="1" opacity="1" d="M 291.5 235 L 300 236 L 303 250.5 L 303 259.5 L 302 259.5 L 301 257.5 L 301 245.5 L 298 237 Q 292.3 236 290 239.5 L 289 249.5 L 290 250.5 L 290 260.5 Q 287.7 261.8 289 266.5 L 286.5 269 L 277.5 271 Q 271.4 269.6 269 264.5 L 267 257.5 L 266 241.5 L 263.5 238 L 259.5 237 L 256 241.5 L 256 253.5 L 257 254.5 L 257 263.5 L 255 269 L 249.5 272 L 243.5 272 L 237 267.5 L 236 265.5 L 238 265 L 240.5 269 L 249.5 271 L 254 266.5 L 253.5 265 L 255 264.5 L 255 249.5 L 254 247.5 Q 256.5 246 255 240.5 L 257.5 236 Q 265.3 234.3 267 238.5 L 269 259.5 L 273 268 Q 277.3 267 278.5 270 L 287 267 L 288 260.5 L 287 258.5 L 288 257.5 L 288 238.5 L 291.5 235 Z " /><path fill="rgb(142,190,83)" stroke="rgb(142,190,83)" stroke-width="1" opacity="1" d="M 499 240 Q 502 239 501 242 Q 498 243 499 240 Z " /><path fill="rgb(142,190,83)" stroke="rgb(142,190,83)" stroke-width="1" opacity="1" d="M 387.5 242 L 388 244.5 L 387 244.5 L 387.5 242 Z " /><path fill="rgb(142,190,83)" stroke="rgb(142,190,83)" stroke-width="1" opacity="1" d="M 132.5 243 Q 135.5 244.5 132.5 246 Q 129.5 244.5 132.5 243 Z " /><path fill="rgb(142,190,83)" stroke="rgb(142,190,83)" stroke-width="1" opacity="1" d="M 601.5 253 L 602 255.5 L 601 255.5 L 601.5 253 Z " /><path fill="rgb(142,190,83)" stroke="rgb(142,190,83)" stroke-width="1" opacity="1" d="M 124.5 255 Q 126.8 254.3 126 256.5 L 122.5 258 L 124.5 255 Z " /><path fill="rgb(142,190,83)" stroke="rgb(142,190,83)" stroke-width="1" opacity="1" d="M 385.5 255 L 386 256.5 L 384 257.5 L 385.5 255 Z " /><path fill="rgb(142,190,83)" stroke="rgb(142,190,83)" stroke-width="1" opacity="1" d="M 121.5 259 Q 126.6 263.4 125 274.5 L 120.5 281 Q 114.8 286.8 103.5 287 Q 95 285.5 91 279.5 L 88 272.5 L 88 268.5 L 85.5 265 Q 80.7 266.3 82 263 Q 87.5 261.8 89 265.5 L 91 275.5 L 95 282 L 107.5 285 L 121 278.5 L 124 272.5 L 124 268.5 L 120 262.5 L 121.5 259 Z " /><path fill="rgb(142,190,83)" stroke="rgb(142,190,83)" stroke-width="1" opacity="1" d="M 550.5 260 L 551 266.5 L 550 266.5 L 550.5 260 Z " /><path fill="rgb(5,7,3)" stroke="rgb(5,7,3)" stroke-width="1" opacity="0.9686274509803922" d="M 375.5 13 Q 388 11 392 17.5 L 396 24 Q 401.4 24.7 404 29.5 L 405 37.5 L 407.5 42 Q 416.1 44.4 420 51.5 Q 431.2 63.8 431 87.5 L 427 105.5 Q 422.7 117.7 413.5 125 Q 400.5 135.5 374.5 133 L 343.5 127 Q 331.9 122.6 325 113.5 Q 325.8 110.9 322.5 112 L 317 120.5 L 310.5 127 L 289.5 137 L 281.5 138 L 266.5 143 L 251.5 144 Q 230.9 140.6 221 126.5 Q 214.3 117.7 211 105.5 L 210 100.5 L 210 85.5 L 214 72.5 L 227 55.5 Q 226 44 232.5 40 L 235 38.5 Q 235.9 31.9 240.5 29 L 245.5 27 L 260.5 26 L 269.5 29 L 274 33.5 L 277.5 40 L 285.5 41 L 296.5 45 Q 306.5 50 313 58.5 L 316.5 63 L 326 48.5 L 332.5 42 L 342.5 35 L 354 32 Q 354.8 22.5 361.5 18 L 368.5 14 Q 374 15.5 375.5 13 Z M 381 21 L 379 22 L 376 27 L 370 23 L 367 24 L 362 30 L 362 34 L 366 40 L 364 39 Q 345 39 337 49 L 328 59 L 323 73 L 323 92 L 328 106 Q 334 114 344 118 L 352 121 L 365 122 L 379 126 L 395 125 L 406 121 L 412 116 L 419 106 L 423 91 L 423 78 L 421 69 L 414 57 Q 407 47 394 45 Q 393 42 396 43 Q 400 42 398 35 L 394 31 L 388 32 L 389 28 L 388 25 Q 387 20 381 21 Z M 249 34 L 246 35 L 243 39 L 244 46 L 243 45 L 238 46 L 235 50 Q 234 55 238 57 Q 240 56 239 59 L 232 63 L 223 72 L 218 86 Q 216 98 219 106 L 223 116 L 229 124 Q 236 133 251 136 L 262 136 L 282 130 L 287 130 L 307 120 Q 314 114 317 104 Q 318 96 315 92 L 315 80 L 311 72 L 311 69 L 303 59 L 290 50 L 281 48 Q 275 47 274 49 L 267 49 L 269 45 L 268 39 Q 267 34 260 35 L 257 41 L 256 40 L 249 34 Z " /><path fill="rgb(5,7,3)" stroke="rgb(5,7,3)" stroke-width="1" opacity="0.9686274509803922" d="M 351.5 52 L 357 53 Q 358.1 56.5 350.5 55 L 348.5 56 L 351.5 52 Z " /><path fill="rgb(5,7,3)" stroke="rgb(5,7,3)" stroke-width="1" opacity="0.9686274509803922" d="M 396.5 57 L 402 61.5 Q 402.8 63.8 400.5 63 Q 399.1 59 394 60 Q 392.9 57.3 395.5 58 L 396.5 57 Z " /><path fill="rgb(5,7,3)" stroke="rgb(5,7,3)" stroke-width="1" opacity="0.9686274509803922" d="M 279.5 60 Q 284.8 58.8 286 61.5 L 285.5 63 L 281.5 62 L 278 63 L 279.5 60 Z " /><path fill="rgb(5,7,3)" stroke="rgb(5,7,3)" stroke-width="1" opacity="0.9686274509803922" d="M 348.5 71 Q 352.9 69.5 352 72.5 L 351 75.5 L 354.5 77 L 356.5 72 Q 358.9 74.1 358 79.5 L 354.5 84 L 348.5 85 L 346 84 L 344 76.5 L 346 72 L 348.5 71 Z " /><path fill="rgb(5,7,3)" stroke="rgb(5,7,3)" stroke-width="1" opacity="0.9686274509803922" d="M 238.5 72 Q 244.3 70.3 243 74 Q 237.8 74 235.5 78 L 236 76.5 Q 235.5 72.5 238.5 72 Z " /><path fill="rgb(5,7,3)" stroke="rgb(5,7,3)" stroke-width="1" opacity="0.9686274509803922" d="M 391.5 76 L 396 77.5 L 391 79.5 L 392 83 Q 395.8 84 397 81.5 L 397.5 79 Q 401.5 80.5 400 87.5 Q 398.8 92.2 391.5 91 Q 386.2 88.7 386 81.5 L 389.5 77 L 391.5 76 Z " /><path fill="rgb(5,7,3)" stroke="rgb(5,7,3)" stroke-width="1" opacity="0.9686274509803922" d="M 285.5 77 L 293 80 L 295 88 L 291 88 L 291 86.5 L 289 83 L 286.5 82 L 284 83 L 283 87.5 L 284 91 L 281 89.5 L 280 81.5 L 282.5 78 L 285.5 77 Z " /><path fill="rgb(5,7,3)" stroke="rgb(5,7,3)" stroke-width="1" opacity="0.9686274509803922" d="M 359.5 88 L 362 89.5 L 362 93.5 L 366.5 98 L 373.5 99 L 377 96.5 L 380.5 91 L 383 92.5 L 383 95.5 L 381 99 L 375.5 102 L 370.5 103 L 361 98.5 Q 358 95.5 358 89.5 L 359.5 88 Z " /><path fill="rgb(5,7,3)" stroke="rgb(5,7,3)" stroke-width="1" opacity="0.9686274509803922" d="M 245.5 89 Q 250.6 88.4 252 91.5 Q 255.2 94 254 100 Q 251.3 101.1 252 98.5 L 248.5 94 L 245 95 L 244 99.5 L 245 102.5 Q 243.5 105.5 242 102.5 L 241 93.5 L 245.5 89 Z " /><path fill="rgb(5,7,3)" stroke="rgb(5,7,3)" stroke-width="1" opacity="0.9686274509803922" d="M 277.5 97 Q 282.3 96.3 283 99.5 Q 282.8 104.3 279.5 106 L 266.5 110 L 262.5 110 L 259 107.5 Q 257.1 102.1 260.5 103 L 277.5 97 Z " /><path fill="rgb(5,7,3)" stroke="rgb(5,7,3)" stroke-width="1" opacity="0.9686274509803922" d="M 343.5 157 L 359.5 157 L 366.5 159 L 375 166.5 L 378.5 173 Q 381.8 174.1 381 171.5 L 388.5 163 L 397.5 159 L 414.5 159 Q 426.3 162.7 433 171.5 L 438 181.5 L 441 198 Q 447 196 457.5 197 Q 466.6 198.9 471 205.5 Q 470.1 208.5 474.5 207 L 481.5 202 L 491.5 200 L 502.5 203 L 508 206 Q 506.9 208.7 509.5 208 L 513.5 209 L 522.5 203 L 532.5 202 Q 533.7 204.3 538.5 203 L 548.5 209 Q 556.8 207.8 561.5 210 L 568.5 215 L 577.5 215 L 581.5 214 L 598.5 219 L 610 228.5 Q 616.7 236.8 619 249.5 L 619 270.5 L 615 285.5 L 611 293.5 L 604.5 301 L 594.5 305 L 584.5 305 L 574.5 301 L 570.5 297 L 567.5 297 Q 563.7 301.2 554.5 300 L 546.5 298 L 539 293.5 L 536.5 290 Q 531.5 295.5 519.5 294 Q 509.4 291.6 504 284.5 L 502 277 L 482.5 286 Q 475 288.5 463.5 287 L 446.5 281 L 435 270.5 L 429 260.5 L 427 250.5 L 424.5 246 L 418.5 251 L 409 255.5 L 407 266.5 L 398.5 277 L 390.5 281 L 373.5 282 L 364.5 280 L 355 274 L 349 263.5 L 348 254.5 L 346.5 253 L 336 247 L 333 265.5 Q 330.4 272.9 324.5 277 Q 319.2 281.2 309.5 281 L 298.5 276 L 295.5 276 Q 288.7 283.2 272.5 281 L 262.5 276 Q 256.1 284.6 238.5 282 L 230 276.5 L 225.5 271 Q 218.4 280.9 205.5 285 Q 196.8 288.8 182.5 287 Q 165.9 283.1 157 271.5 L 149 257.5 L 149 254 Q 144.3 253 143 256.5 Q 143.8 258.8 141.5 258 L 136 263.5 Q 137.6 282.6 127.5 290 L 116.5 296 L 100.5 297 L 90.5 294 L 82 286.5 L 75.5 275 Q 56.7 270.8 47 257.5 Q 33.2 239.8 35 206.5 Q 37.3 192.8 46.5 186 L 58.5 180 L 75.5 180 Q 83.8 182.7 88.5 189 L 90.5 189 Q 94.1 180.1 101.5 175 L 112.5 171 L 125.5 171 Q 137.8 173.7 144 182.5 L 154.5 203 L 165.5 199 L 173.5 199 L 187.5 205 L 195.5 198 L 200.5 196 L 213.5 196 L 223.5 201 Q 230.1 191.1 246.5 191 L 256.5 194 L 257.5 193 L 270.5 193 Q 272.8 195.7 278.5 195 L 289.5 191 L 297.5 191 L 317 197 Q 316.9 171.7 332.5 161 L 343.5 157 Z M 348 166 L 336 172 L 329 183 L 327 191 L 327 212 L 333 230 L 336 231 L 340 238 Q 346 239 350 244 L 358 246 L 358 258 L 361 265 Q 366 271 377 273 L 382 273 L 389 271 L 395 267 Q 400 262 398 249 Q 402 245 409 245 L 418 239 L 426 229 L 430 210 L 430 194 L 428 188 L 428 183 L 423 177 Q 424 174 421 175 L 421 173 L 413 169 Q 407 171 406 168 Q 404 171 399 169 L 392 172 L 388 181 L 387 208 L 384 214 L 382 215 L 375 214 L 370 209 L 370 182 L 368 174 L 360 167 L 348 166 Z M 113 181 L 107 184 L 101 191 L 101 205 L 104 215 L 104 227 L 103 229 L 100 231 L 91 230 L 87 221 L 85 207 L 81 196 L 74 190 Q 61 188 55 193 Q 47 197 45 207 L 45 226 L 48 237 L 55 251 L 65 260 L 79 266 L 85 266 L 87 269 L 87 273 L 90 281 L 101 287 L 111 287 L 119 284 Q 124 281 126 275 L 126 267 L 124 260 L 134 253 L 141 245 L 146 229 Q 146 204 136 190 Q 132 184 125 181 L 113 181 Z M 244 201 L 236 203 L 229 213 L 229 245 Q 232 246 230 252 L 234 265 L 237 270 L 244 273 Q 251 274 254 271 L 257 267 L 258 262 L 257 258 L 257 242 L 258 239 L 261 238 L 264 239 L 266 250 L 266 259 L 269 267 L 275 271 L 278 271 L 281 272 L 287 270 L 290 267 L 291 263 L 291 249 L 290 248 L 291 241 Q 292 237 297 238 L 299 242 L 300 259 L 303 268 L 310 271 Q 316 272 319 269 L 325 260 L 325 234 L 323 226 L 317 213 L 313 209 L 311 206 L 303 202 Q 297 204 296 201 L 295 202 L 287 202 L 279 208 L 267 202 Q 257 201 254 205 Q 250 206 251 204 L 250 202 L 244 201 Z M 203 206 L 199 208 L 194 215 L 198 234 L 198 244 L 193 248 L 187 247 L 182 240 L 180 217 L 178 212 L 175 209 Q 164 207 160 212 L 155 219 L 155 242 L 158 253 L 164 264 L 176 274 L 187 277 L 197 277 Q 199 274 206 275 L 213 270 L 222 258 L 224 247 L 224 234 L 222 226 L 222 219 L 219 212 Q 215 204 203 206 Z M 448 207 L 443 209 Q 437 215 435 225 L 435 246 L 437 254 L 442 264 L 453 273 L 467 277 Q 483 278 492 271 L 502 259 Q 501 252 505 251 L 506 240 L 507 239 Q 509 225 505 218 Q 502 212 495 210 Q 488 209 485 211 L 479 219 L 479 242 L 478 245 L 474 248 Q 467 249 465 247 L 463 244 Q 464 239 462 238 L 465 221 L 464 212 Q 460 205 448 207 Z M 529 212 L 521 216 L 516 223 L 511 241 L 511 249 L 510 250 L 510 272 L 514 281 L 522 284 Q 528 285 531 282 L 534 275 L 538 255 L 540 253 Q 544 252 545 255 L 545 271 L 544 272 Q 543 281 546 286 L 549 288 L 555 290 L 563 289 L 567 285 L 571 265 L 575 260 Q 579 259 580 262 L 580 269 L 577 282 Q 576 289 579 292 L 587 296 L 596 295 L 604 286 L 609 267 L 608 248 L 602 235 Q 595 227 584 224 Q 573 223 568 228 L 566 226 Q 561 220 553 218 L 542 219 L 541 216 Q 538 217 539 214 L 529 212 Z " /><path fill="rgb(5,7,3)" stroke="rgb(5,7,3)" stroke-width="1" opacity="0.9686274509803922" d="M 299.5 309 L 358.5 309 L 359.5 310 L 412.5 311 L 413.5 312 L 427.5 313 L 443.5 316 L 470.5 318 L 504.5 325 L 512.5 325 L 522.5 327 L 543.5 333 L 549.5 333 L 568.5 339 L 576.5 340 L 582 343.5 Q 583 349 579.5 350 L 576.5 351 L 563.5 347 L 558.5 347 L 505.5 334 L 480.5 331 L 473.5 329 L 466.5 329 L 446.5 325 L 409.5 323 L 408.5 322 L 397.5 322 L 396.5 321 L 383.5 321 L 382.5 320 L 304.5 319 L 303.5 320 L 273.5 320 L 272.5 321 L 262.5 321 L 252.5 323 L 214.5 325 L 196.5 329 L 157.5 334 L 87.5 351 L 83 348.5 L 82 344.5 L 83 342 L 106.5 335 L 120.5 333 L 136.5 328 L 151.5 325 L 158.5 325 L 179.5 320 L 211.5 317 L 218.5 315 L 227.5 315 L 250.5 311 L 277.5 311 L 278.5 310 L 298.5 310 L 299.5 309 Z " /></svg>